<?xml version="1.0" encoding="UTF-8"?>
<svg width="14px" height="8px" viewBox="0 0 14 8" version="1.1" xmlns="http://www.w3.org/2000/svg" xmlns:xlink="http://www.w3.org/1999/xlink">
    <!-- Generator: Sketch 52.6 (67491) - http://www.bohemiancoding.com/sketch -->
    <title>Announces_Icon</title>
    <desc>Created with Sketch.</desc>
    <g id="Page-1" stroke="none" stroke-width="1" fill="none" fill-rule="evenodd">
        <g id="DB_ANNOUNCES_R" transform="translate(-58.000000, -246.000000)" fill="#404660" fill-rule="nonzero">
            <g id="Menu" transform="translate(0.000000, 60.000000)">
                <g id="Announces_Opt" transform="translate(50.000000, 170.000000)">
                    <g id="Announces_Icon" transform="translate(15.000000, 20.000000) rotate(-360.000000) translate(-15.000000, -20.000000) translate(8.000000, 16.000000)">
                        <path style="fill: #246BF8" d="M13.4203666,0 L2.44048407,0 C2.23144869,0 2.03860072,0.116170238 1.93571734,0.30416357 L0.0749445504,3.70571813 C-0.0249815168,3.88824841 -0.0249815168,4.11159091 0.0749445504,4.29412119 L1.93571734,7.69583643 C2.03844508,7.88382976 2.23129305,8 2.44048407,8 L13.4203666,8 C13.7405347,8 14,7.73214967 14,7.4016349 L14,0.598204423 C14,0.267850328 13.7405347,0 13.4203666,0 Z M5.3842562,1.78818615 L10.1707459,1.78818615 L10.1707459,2.63528089 L5.3842562,2.63528089 L5.3842562,1.78818615 Z M2.64920814,4.98808974 C2.12047161,4.98808974 1.69197245,4.54558236 1.69197245,3.99991966 C1.69197245,3.45409629 2.12062726,3.01174958 2.64920814,3.01174958 C3.17778902,3.01174958 3.60644383,3.45425696 3.60644383,3.99991966 C3.60644383,4.54574304 3.17794467,4.98808974 2.64920814,4.98808974 Z M8.1194599,6.21165318 L5.3842562,6.21165318 L5.3842562,5.36455844 L8.1194599,5.36455844 L8.1194599,6.21165318 Z M11.2191914,4.42346703 L5.3842562,4.42346703 L5.3842562,3.57637229 L11.2191914,3.57637229 L11.2191914,4.42346703 Z" id="Shape"></path>
                    </g>
                </g>
            </g>
        </g>
    </g>
</svg>