<?xml version="1.0" encoding="UTF-8"?>
<svg width="18px" height="5px" viewBox="0 0 18 5" version="1.1" xmlns="http://www.w3.org/2000/svg" xmlns:xlink="http://www.w3.org/1999/xlink">
    <!-- Generator: Sketch 52.6 (67491) - http://www.bohemiancoding.com/sketch -->
    <title>arroxLogo</title>
    <desc>Created with Sketch.</desc>
    <g id="Page-1" stroke="none" stroke-width="1" fill="none" fill-rule="evenodd">
        <g id="CUT_VIEW" transform="translate(-1241.000000, -29.000000)" fill="#FFFFFF" fill-rule="nonzero">
            <g id="First_Part">
                <g id="NavBar">
                    <g id="RecruiterButton" transform="translate(1145.000000, 10.000000)">
                        <g id="arroxLogo" transform="translate(96.000000, 19.000000)">
                            <path d="M14.5976429,0.766281201 C14.499179,0.713477612 14.380019,0.715363399 14.2821823,0.774453182 C14.1856,0.832285752 14.1266471,0.936635718 14.1260199,1.04915773 C14.1243344,1.46097883 14.14213,1.87429293 14.1563587,2.28733191 C12.9344585,2.25362243 9.03184885,2.19732219 5.94191869,2.15728725 C5.89899755,1.92418911 5.78948006,1.6886944 5.6336704,1.43512701 C5.23918789,0.792682932 5.1068575,0.580211232 5.04037875,0.473346776 C4.97578147,0.36899681 4.97578147,0.36899681 4.84846835,0.156525046 C4.79076976,0.0590897832 4.68603436,0 4.57314591,0 L0.759396898,0 C0.643999786,0 0.536755722,0.0622328479 0.480311499,0.163439749 C0.423240093,0.264018076 0.424494393,0.387855133 0.484074464,0.487176247 C0.615150556,0.706562715 0.615150556,0.706562715 0.682256493,0.81405581 C0.74810813,0.920291692 0.880438522,1.13276339 1.27366667,1.77206434 C1.60104343,2.30575811 1.57282132,2.46856922 1.28746417,2.8004777 C0.677239227,3.5724164 0.475921415,3.83077692 0.374948983,3.96027153 C0.275857968,4.08788029 0.275857968,4.08788029 0.0720315554,4.33869747 C-0.0063632138,4.43487552 -0.0220421933,4.56814177 0.0312662471,4.68003514 C0.0839475053,4.79192851 0.196836017,4.86359056 0.32101336,4.86359056 L4.13476231,4.86359056 C4.23134466,4.86359056 4.32290981,4.82021616 4.38374412,4.74478241 C4.5925878,4.48705047 4.5925878,4.48705047 4.69481459,4.35629864 C4.79515991,4.22743267 4.99647772,3.96970072 5.59604094,3.21033435 C5.7183368,3.06807103 5.8024152,2.93248674 5.86207362,2.79984906 C8.96497809,2.83992327 12.9246591,2.89689141 14.1467161,2.93122953 C14.1498518,2.93122953 14.1523605,2.93122953 14.1554963,2.93122953 C14.1621599,2.93122953 14.1678043,2.92785074 14.1743894,2.92745783 C14.206884,3.52585961 14.2548617,4.12288625 14.3204389,4.71398034 C14.3311006,4.8114156 14.3862905,4.89879303 14.4690754,4.95096805 C14.5205023,4.9830274 14.5800824,5 14.6396624,5 C14.6754105,5 14.7117856,4.99371387 14.7462793,4.98177019 C15.8500778,4.59140056 16.8986863,4.05142066 17.8626285,3.37628866 C17.9472948,3.3165703 17.9987219,3.22039225 17.9999762,3.11667086 C18.0012305,3.01294947 17.9529393,2.91488557 17.8695272,2.85328136 C17.3746994,2.48679917 15.081809,1.02401315 14.5976429,0.766281201 Z M4.49600545,0.814055874 C4.56185708,0.920291756 4.69418747,1.13276346 5.0867885,1.77206441 C5.18086225,1.92544632 5.23793366,2.04382235 5.27564153,2.14876169 C4.8441175,2.14326132 4.43571991,2.13819308 4.06095363,2.13363567 C4.01497512,1.90808094 3.90651593,1.67977599 3.75595904,1.43449844 C3.50223432,1.02165585 3.35743921,0.787418356 3.26818672,0.643701357 L4.39126998,0.643701357 C4.43579826,0.717877889 4.45085005,0.741765194 4.49600545,0.814055874 Z M1.33261969,0.643701357 L2.51316661,0.643701357 C2.55581334,0.714695495 2.57345221,0.743218929 2.61766683,0.814055874 C2.68351847,0.920291756 2.81584886,1.13276346 3.20907701,1.77206441 C3.29562483,1.91318838 3.35402895,2.02645683 3.39271677,2.12569935 C2.82905835,2.11913817 2.38973398,2.1143843 2.12260377,2.11198767 C2.07407741,1.89346557 1.96628458,1.6719182 1.8205487,1.43449837 C1.56717687,1.02275593 1.42230329,0.78765408 1.33261969,0.643701357 Z M1.78229212,3.21096312 C1.91842465,3.05267015 2.01257675,2.90199905 2.0718824,2.75525685 C2.30984973,2.75726056 2.72016798,2.76162158 3.24674571,2.76767198 C3.23706394,2.77930135 3.2332618,2.78841629 3.2228745,2.80047783 C2.61264957,3.57241652 2.41133176,3.83077705 2.31035932,3.96027166 C2.2312982,4.0621072 2.21071954,4.08827327 2.1039459,4.21988946 L0.987682521,4.21988946 C1.11624995,4.05582107 1.34139992,3.76854426 1.78229212,3.21096312 Z M5.10121312,2.80047783 C4.49098818,3.57241652 4.28967037,3.83077705 4.18869794,3.96027166 C4.10842168,4.06336441 4.0927427,4.0828515 3.98173574,4.21988946 L2.92297534,4.21988946 C3.05126841,4.05593893 3.27598701,3.7699586 3.71770239,3.21096312 C3.84736736,3.06021349 3.93658028,2.91661436 3.99627794,2.77651187 C4.34082297,2.78063716 4.71335494,2.78523389 5.10866063,2.79022354 C5.10548561,2.79395598 5.10442731,2.79670613 5.10121312,2.80047783 Z M14.9162392,4.23183314 C14.8315729,3.36497368 14.7832817,2.48805638 14.7707385,1.61428221 C15.4242373,2.01282382 16.4973051,2.69864229 17.1081572,3.10849901 C16.4151474,3.5560725 15.6807451,3.93261265 14.9162392,4.23183314 Z" id="Shape"></path>
                        </g>
                    </g>
                </g>
            </g>
        </g>
    </g>
</svg>