<?xml version="1.0" encoding="UTF-8"?>
<svg width="12px" height="11px" viewBox="0 0 12 11" version="1.1" xmlns="http://www.w3.org/2000/svg" xmlns:xlink="http://www.w3.org/1999/xlink">
    <!-- Generator: Sketch 52.6 (67491) - http://www.bohemiancoding.com/sketch -->
    <title>Companies_Log</title>
    <desc>Created with Sketch.</desc>
    <g id="Page-1" stroke="none" stroke-width="1" fill="none" fill-rule="evenodd">
        <g id="DB_COMPANIES_R" transform="translate(-59.000000, -204.000000)" fill="#404660" fill-rule="nonzero">
            <g id="Menu" transform="translate(0.000000, 60.000000)">
                <g id="Company_Opt" transform="translate(50.000000, 130.000000)">
                    <g id="Companies_Log" transform="translate(9.000000, 14.000000)">
                        <path style="fill: #246BF8" d="M0,11 L12,11 L12,10.2918455 L11.2421053,10.2918455 L11.2421053,4.30793991 L7.04842105,3.23390558 L7.04842105,10.2800429 L6.48,10.2800429 L6.48,0 L0.757894737,1.06223176 L0.757894737,10.2918455 L0,10.2918455 L0,11 Z M9.52421053,5.22854077 L10.2821053,5.22854077 L10.2821053,6.14914163 L9.52421053,6.14914163 L9.52421053,5.22854077 Z M9.52421053,6.86909871 L10.2821053,6.86909871 L10.2821053,7.78969957 L9.52421053,7.78969957 L9.52421053,6.86909871 Z M9.52421053,8.50965665 L10.2821053,8.50965665 L10.2821053,9.43025751 L9.52421053,9.43025751 L9.52421053,8.50965665 Z M7.99578947,5.22854077 L8.75368421,5.22854077 L8.75368421,6.14914163 L7.99578947,6.14914163 L7.99578947,5.22854077 Z M7.99578947,6.86909871 L8.75368421,6.86909871 L8.75368421,7.78969957 L7.99578947,7.78969957 L7.99578947,6.86909871 Z M7.99578947,8.50965665 L8.75368421,8.50965665 L8.75368421,9.43025751 L7.99578947,9.43025751 L7.99578947,8.50965665 Z M4.76210526,1.95922747 L5.52,1.95922747 L5.52,2.87982833 L4.76210526,2.87982833 L4.76210526,1.95922747 Z M4.76210526,3.59978541 L5.52,3.59978541 L5.52,4.52038627 L4.76210526,4.52038627 L4.76210526,3.59978541 Z M4.76210526,5.22854077 L5.52,5.22854077 L5.52,6.14914163 L4.76210526,6.14914163 L4.76210526,5.22854077 Z M4.76210526,6.86909871 L5.52,6.86909871 L5.52,7.78969957 L4.76210526,7.78969957 L4.76210526,6.86909871 Z M3.23368421,1.95922747 L3.99157895,1.95922747 L3.99157895,2.87982833 L3.23368421,2.87982833 L3.23368421,1.95922747 Z M3.23368421,3.59978541 L3.99157895,3.59978541 L3.99157895,4.52038627 L3.23368421,4.52038627 L3.23368421,3.59978541 Z M3.23368421,5.22854077 L3.99157895,5.22854077 L3.99157895,6.14914163 L3.23368421,6.14914163 L3.23368421,5.22854077 Z M3.23368421,6.86909871 L3.99157895,6.86909871 L3.99157895,7.78969957 L3.23368421,7.78969957 L3.23368421,6.86909871 Z M1.70526316,1.95922747 L2.46315789,1.95922747 L2.46315789,2.87982833 L1.70526316,2.87982833 L1.70526316,1.95922747 Z M1.70526316,3.59978541 L2.46315789,3.59978541 L2.46315789,4.52038627 L1.70526316,4.52038627 L1.70526316,3.59978541 Z M1.70526316,5.22854077 L2.46315789,5.22854077 L2.46315789,6.14914163 L1.70526316,6.14914163 L1.70526316,5.22854077 Z M1.70526316,6.86909871 L2.46315789,6.86909871 L2.46315789,7.78969957 L1.70526316,7.78969957 L1.70526316,6.86909871 Z M2.89263158,8.50965665 L4.34526316,8.50965665 L4.34526316,10.2918455 L2.89263158,10.2918455 L2.89263158,8.50965665 Z" id="Shape"></path>
                    </g>
                </g>
            </g>
        </g>
    </g>
</svg>