<?xml version="1.0" encoding="UTF-8"?>
<svg width="21px" height="22px" viewBox="0 0 21 22" version="1.1" xmlns="http://www.w3.org/2000/svg" xmlns:xlink="http://www.w3.org/1999/xlink">
    <!-- Generator: Sketch 52.6 (67491) - http://www.bohemiancoding.com/sketch -->
    <title>CONTRACT_LOGO</title>
    <desc>Created with Sketch.</desc>
    <defs>
        <filter x="-21.4%" y="-71.1%" width="142.9%" height="242.1%" filterUnits="objectBoundingBox" id="filter-1">
            <feOffset dx="0" dy="0" in="SourceAlpha" result="shadowOffsetOuter1"></feOffset>
            <feGaussianBlur stdDeviation="3.5" in="shadowOffsetOuter1" result="shadowBlurOuter1"></feGaussianBlur>
            <feColorMatrix values="0 0 0 0 0   0 0 0 0 0   0 0 0 0 0  0 0 0 0.0496206975 0" type="matrix" in="shadowBlurOuter1" result="shadowMatrixOuter1"></feColorMatrix>
            <feMerge>
                <feMergeNode in="shadowMatrixOuter1"></feMergeNode>
                <feMergeNode in="SourceGraphic"></feMergeNode>
            </feMerge>
        </filter>
    </defs>
    <g id="Page-1" stroke="none" stroke-width="1" fill="none" fill-rule="evenodd">
        <g id="DB_ANNOUNCES_R" transform="translate(-572.000000, -250.000000)" fill="#404660" fill-rule="nonzero">
            <g id="COMPANIES_LIST" transform="translate(280.000000, 113.000000)">
                <g id="Data">
                    <g id="NotOpenBoxCompany" transform="translate(0.000000, 50.000000)">
                        <g id="Contract" filter="url(#filter-1)" transform="translate(280.000000, 88.000000)">
                            <g id="CONTRACT_LOGO" transform="translate(19.000000, 6.000000)">
                                <path d="M7.08426667,0.000533333333 C7.0784,0.000133333333 7.07253333,0 7.06666667,0 L1.86666667,0 C1.27853333,0 0.8,0.478533333 0.8,1.06666667 L0.8,6.13333333 L0.266666667,6.13333333 C0.119333333,6.13333333 0,6.25266667 0,6.4 L0,7.06666667 C0,7.5812 0.418666667,8 0.933333333,8 L5.6,8 C6.18813333,8 6.66666667,7.52146667 6.66666667,6.93333333 L6.66666667,2 L7.73333333,2 C7.88066667,2 8,1.88066667 8,1.73333333 L8,0.933333333 C8,0.4248 7.59093333,0.01 7.08426667,0.000533333333 Z M5.6,7.6 C5.30586667,7.6 5.06666667,7.3608 5.06666667,7.06666667 L5.06666667,6.4 C5.06666667,6.3264 5.00706667,6.26666667 4.93333333,6.26666667 L1.2,6.26666667 L1.2,1.06666667 C1.2,0.699066667 1.49906667,0.4 1.86666667,0.4 L6.48053333,0.4 C6.34786667,0.549066667 6.26666667,0.747466667 6.26666667,0.962 L6.26666667,6.93333333 C6.26666667,7.30093333 5.9676,7.6 5.6,7.6 Z M4.8,6.53333333 L4.8,7.06666667 C4.8,7.27133333 4.87733333,7.4584 5.00413333,7.6 L0.933333333,7.6 C0.6392,7.6 0.4,7.3608 0.4,7.06666667 L0.4,6.53333333 L4.8,6.53333333 Z M6.53333333,0.962 C6.53333333,0.674 6.7444,0.428266667 7.01386667,0.402533333 C7.16626667,0.387866667 7.3128,0.436133333 7.42533333,0.538666667 C7.53613333,0.639466667 7.6,0.783333333 7.6,0.933333333 L7.6,1.6 L6.53333333,1.6 L6.53333333,0.962 Z M5.46666667,2.4 C5.46666667,2.4736 5.40706667,2.53333333 5.33333333,2.53333333 L2.13333333,2.53333333 C2.05973333,2.53333333 2,2.4736 2,2.4 C2,2.3264 2.05973333,2.26666667 2.13333333,2.26666667 L5.33333333,2.26666667 C5.40706667,2.26666667 5.46666667,2.3264 5.46666667,2.4 Z M5.46666667,3.2 C5.46666667,3.2736 5.40706667,3.33333333 5.33333333,3.33333333 L2.13333333,3.33333333 C2.05973333,3.33333333 2,3.2736 2,3.2 C2,3.1264 2.05973333,3.06666667 2.13333333,3.06666667 L5.33333333,3.06666667 C5.40706667,3.06666667 5.46666667,3.1264 5.46666667,3.2 Z M5.46666667,4 C5.46666667,4.0736 5.40706667,4.13333333 5.33333333,4.13333333 L2.13333333,4.13333333 C2.05973333,4.13333333 2,4.0736 2,4 C2,3.9264 2.05973333,3.86666667 2.13333333,3.86666667 L5.33333333,3.86666667 C5.40706667,3.86666667 5.46666667,3.9264 5.46666667,4 Z M5.46666667,4.8 C5.46666667,4.8736 5.40706667,4.93333333 5.33333333,4.93333333 L2.13333333,4.93333333 C2.05973333,4.93333333 2,4.8736 2,4.8 C2,4.7264 2.05973333,4.66666667 2.13333333,4.66666667 L5.33333333,4.66666667 C5.40706667,4.66666667 5.46666667,4.7264 5.46666667,4.8 Z" id="Shape"></path>
                            </g>
                        </g>
                    </g>
                </g>
            </g>
        </g>
    </g>
</svg>