<?xml version="1.0" encoding="UTF-8"?>
<svg width="9px" height="11px" viewBox="0 0 9 11" version="1.1" xmlns="http://www.w3.org/2000/svg" xmlns:xlink="http://www.w3.org/1999/xlink">
    <!-- Generator: Sketch 52.6 (67491) - http://www.bohemiancoding.com/sketch -->
    <title>Delete_Icon</title>
    <desc>Created with Sketch.</desc>
    <g id="Page-1" stroke="none" stroke-width="1" fill="none" fill-rule="evenodd">
        <g id="DB_COMPANIES_R" transform="translate(-857.000000, -258.000000)" fill="#404660">
            <g id="COMPANIES_LIST" transform="translate(280.000000, 113.000000)">
                <g id="Data">
                    <g id="NotOpenBoxCompany" transform="translate(0.000000, 50.000000)">
                        <g id="Delete_Icon" transform="translate(577.000000, 95.000000)">
                            <path d="M3.5,9 C3.77614237,9 4,8.79032069 4,8.53166815 L4,3.46833185 C4,3.20967931 3.77614237,3 3.5,3 C3.22385763,3 3,3.20967931 3,3.46833185 L3,8.53835861 C3.00390538,8.7943946 3.2266232,9.00002613 3.5,9 Z" id="Path"></path>
                            <path d="M5.5,9 C5.77614237,9 6,8.79032069 6,8.53166815 L6,3.46833185 C6,3.20967931 5.77614237,3 5.5,3 C5.22385763,3 5,3.20967931 5,3.46833185 L5,8.53835861 C5.00390538,8.7943946 5.2266232,9.00002613 5.5,9 Z" id="Path"></path>
                            <path d="M0.434722606,2.13870382 L0.783742755,2.13870382 L0.783742755,8.66807995 C0.785111707,9.955355 1.75746995,10.9985313 2.95735578,11 L6.04264422,11 C7.24253005,10.9985313 8.21488829,9.955355 8.21625725,8.66807995 L8.21625725,2.13870382 L8.56527739,2.13870382 C8.80536806,2.13870382 9,1.92989658 9,1.67231981 C9,1.41474303 8.80536806,1.2059358 8.56527739,1.2059358 L6.37924372,1.2059358 L6.37924372,0.999394306 C6.37855949,0.447748416 5.96189159,0.000734060709 5.44769528,0 L3.55230472,0 C3.03810841,0.000734060709 2.62144051,0.447748416 2.62075628,0.999394306 L2.62075628,1.2059358 L0.434722606,1.2059358 C0.19463194,1.2059358 0,1.41474303 0,1.67231981 C0,1.92989658 0.19463194,2.13870382 0.434722606,2.13870382 Z M3.49020149,0.999394306 C3.49020149,0.962597624 3.51800605,0.932768019 3.55230472,0.932768019 L5.44769528,0.932768019 C5.48199395,0.932768019 5.50979851,0.962597624 5.50979851,0.999394306 L5.50979851,1.2059358 L3.49020149,1.2059358 L3.49020149,0.999394306 Z M1.65318797,2.13870382 L7.34681203,2.13870382 L7.34681203,8.66807995 C7.34612731,9.4405058 6.7626324,10.0664974 6.04264422,10.067232 L2.95735578,10.067232 C2.2373676,10.0664974 1.65387269,9.4405058 1.65318797,8.66807995 L1.65318797,2.13870382 Z" id="Shape" fill-rule="nonzero"></path>
                        </g>
                    </g>
                </g>
            </g>
        </g>
    </g>
</svg>