<?xml version="1.0" encoding="UTF-8"?>
<svg width="10px" height="8px" viewBox="0 0 10 8" version="1.1" xmlns="http://www.w3.org/2000/svg" xmlns:xlink="http://www.w3.org/1999/xlink">
    <!-- Generator: Sketch 52.6 (67491) - http://www.bohemiancoding.com/sketch -->
    <title>ic_remove_red_eye</title>
    <desc>Created with Sketch.</desc>
    <g id="Page-1" stroke="none" stroke-width="1" fill="none" fill-rule="evenodd">
        <g id="DB_RECRUITER_JOBS_V2" transform="translate(-1051.000000, -414.000000)">
            <g id="Job-Copy-2" transform="translate(250.000000, 367.000000)">
                <g id="Views" transform="translate(795.000000, 38.000000)">
                    <g id="ic_remove_red_eye" transform="translate(6.000000, 8.000000)">
                        <g id="Icon-24px">
                            <polygon id="Shape" points="0 0 10 0 10 10 0 10"></polygon>
                            <path style="fill: #fff" d="M5,1.875 C2.91666667,1.875 1.1375,3.17083333 0.416666667,5 C1.1375,6.82916667 2.91666667,8.125 5,8.125 C7.08333333,8.125 8.8625,6.82916667 9.58333333,5 C8.8625,3.17083333 7.08333333,1.875 5,1.875 L5,1.875 Z M5,7.08333333 C3.85,7.08333333 2.91666667,6.15 2.91666667,5 C2.91666667,3.85 3.85,2.91666667 5,2.91666667 C6.15,2.91666667 7.08333333,3.85 7.08333333,5 C7.08333333,6.15 6.15,7.08333333 5,7.08333333 L5,7.08333333 Z M5,3.75 C4.30833333,3.75 3.75,4.30833333 3.75,5 C3.75,5.69166667 4.30833333,6.25 5,6.25 C5.69166667,6.25 6.25,5.69166667 6.25,5 C6.25,4.30833333 5.69166667,3.75 5,3.75 L5,3.75 Z" id="Shape" fill="#FFC107"></path>
                        </g>
                    </g>
                </g>
            </g>
        </g>
    </g>
</svg>