<?xml version="1.0" encoding="UTF-8"?>
<svg width="15px" height="13px" viewBox="0 0 15 13" version="1.1" xmlns="http://www.w3.org/2000/svg" xmlns:xlink="http://www.w3.org/1999/xlink">
    <!-- Generator: Sketch 52.6 (67491) - http://www.bohemiancoding.com/sketch -->
    <title>Feather_Logo</title>
    <desc>Created with Sketch.</desc>
    <g id="Page-1" stroke="none" stroke-width="1" fill="none" fill-rule="evenodd">
        <g id="CUT_VIEW" transform="translate(-1096.000000, -24.000000)" fill="#404660">
            <g id="First_Part">
                <g id="NavBar">
                    <g id="SignInBtn" transform="translate(1001.000000, 10.000000)">
                        <g id="Feather_Logo" transform="translate(95.000000, 14.000000)">
                            <path d="M4.20298879,2.57138501 C1.34495641,4.78580961 0.541718555,7.41662174 1.21419676,8.81719798 C0.466998755,10.0852873 0.186799502,11.3155232 0,13 C1.41967621,10.2367009 2.27895392,8.00334962 6.91158157,4.25586184 C5.58530511,4.53976243 3.30635118,5.90248526 1.75591532,7.98442292 C1.51307597,5.92141197 3.88542964,3.63128054 5.49190535,2.60923842 C5.26774595,3.30952654 5.34246575,3.13918619 4.875467,4.10444819 C5.56662516,3.46094019 6.01494396,3.06347936 6.66874222,1.94680371 C7.54669988,1.51148948 8.44333748,1.18973547 9.35865504,0.981541708 C9.20921544,1.49256277 9.15317559,2.28748442 7.82689913,3.53664701 C7.82689913,3.53664701 9.50809465,2.77957878 10.3113325,2.83635889 C9.13449564,4.16122831 8.29389788,5.61858467 6.98630137,6.86774727 C5.86550436,6.75418703 5.1369863,7.18950127 4.44582814,7.9276428 C4.9875467,7.66266892 5.71606476,7.45447515 6.18306351,7.58696209 C5.3237858,8.28725021 3.99750934,9.1957321 2.91407223,9.12002528 C2.70859278,9.44177928 2.68991283,9.46070598 2.46575342,9.8392401 C4.24034869,10.293481 6.46326276,8.45759057 7.77085928,7.17057456 C10.6662516,4.33156867 10.2926526,2.28748442 15,1.18973547 C11.4134496,-1.02468912 7.41594022,0.0919865274 4.20298879,2.57138501 Z" id="Path"></path>
                        </g>
                    </g>
                </g>
            </g>
        </g>
    </g>
</svg>