<?xml version="1.0" encoding="UTF-8"?>
<svg width="10px" height="10px" viewBox="0 0 10 10" version="1.1" xmlns="http://www.w3.org/2000/svg" xmlns:xlink="http://www.w3.org/1999/xlink">
    <!-- Generator: Sketch 52.6 (67491) - http://www.bohemiancoding.com/sketch -->
    <title>Profil_icon</title>
    <desc>Created with Sketch.</desc>
    <g id="Page-1" stroke="none" stroke-width="1" fill="none" fill-rule="evenodd">
        <g id="PROFIL_INFO_CD" transform="translate(-60.000000, -205.000000)" fill="#404660">
            <g id="Menu" transform="translate(0.000000, 60.000000)">
                <g id="Info_Opt" transform="translate(50.000000, 130.000000)">
                    <g id="Profil_icon" transform="translate(10.000000, 15.000000)">
                        <path style="fill: #246BF8" d="M10,10 C10,8.09004522 8.85435897,6.47890549 7.28820513,5.97630088 C6.99538462,6.27053638 6.6574359,6.50810006 6.29282051,6.67468086 C5.88333333,6.86158338 5.44230769,6.95718129 5,6.95718129 C4.55794872,6.95718129 4.11692308,6.86158338 3.7074359,6.67468086 C3.34282051,6.50810006 3.00461538,6.27053638 2.71205128,5.97630088 C1.14589744,6.47861927 0,8.089759 0,9.99942756 C0,9.99971378 0,10 0,10 L10,10 Z M4.9825641,6.2788368 L4.98205128,6.2788368 L4.97230769,6.2788368 L4.96615385,6.2788368 L4.96564103,6.2788368 L4.96384615,6.2788368 L4.95025641,6.27855058 L4.94897436,6.27855058 L4.94871795,6.27855058 C4.59153846,6.27139504 4.25051282,6.18953575 3.9374359,6.04671132 L3.92435897,6.04098689 L3.92282051,6.04012823 L3.92153846,6.03955578 L3.91794872,6.03783846 L3.91153846,6.03469002 L3.90846154,6.03354514 L3.90589744,6.03211403 L3.90230769,6.0303967 L3.89846154,6.02867937 L3.89435897,6.02667583 L3.89,6.02467228 L3.88717949,6.02324117 L3.88564103,6.02238251 L3.88128205,6.02037896 C2.88512821,5.53723739 2.18769231,4.42841605 2.18769231,3.13956151 C2.18769231,1.40677772 3.44794872,0 5,0 C6.55230769,0 7.8125641,1.40677772 7.8125641,3.13956151 C7.8125641,4.42841605 7.11512821,5.53723739 6.11897436,6.02037896 L6.11461538,6.02238251 L6.11307692,6.02324117 L6.11025641,6.02467228 L6.10564103,6.02667583 L6.10179487,6.02867937 L6.09794872,6.0303967 L6.09435897,6.03211403 L6.09179487,6.03354514 L6.08871795,6.03469002 L6.08230769,6.03783846 L6.07871795,6.03955578 L6.0774359,6.04012823 L6.07589744,6.04098689 L6.06282051,6.04671132 C5.74974359,6.18953575 5.40871795,6.27139504 5.05153846,6.27855058 L5.05128205,6.27855058 L5.04974359,6.27855058 L5.03641026,6.2788368 L5.03461538,6.2788368 L5.03410256,6.2788368 L5.02794872,6.2788368 L5.01820513,6.2788368 L5.01769231,6.2788368 L5.01717949,6.2788368 L5,6.27912302 L4.98307692,6.2788368 L4.9825641,6.2788368 Z" id="Shape"></path>
                    </g>
                </g>
            </g>
        </g>
    </g>
</svg>