<?xml version="1.0" encoding="UTF-8"?>
<svg width="113px" height="21px" viewBox="0 0 113 21" version="1.1" xmlns="http://www.w3.org/2000/svg" xmlns:xlink="http://www.w3.org/1999/xlink">
  <defs>
      <rect id="path-1" x="0" y="0" width="9" height="9"></rect>
      <rect id="path-3" x="0" y="0" width="9" height="9"></rect>
  </defs>
  <g id="Page-1" stroke="none" stroke-width="1" fill="none" fill-rule="evenodd">
      <g id="CUT_VIEW" transform="translate(-52.000000, -19.000000)">
          <g id="First_Part">
              <g id="NavBar">
                  <g id="logoJB" transform="translate(52.000000, 15.000000)">
                      <text id="J" font-family="SourceSansPro-Black, Source Sans Pro" font-size="24" font-weight="700" fill="#404660">
                          <tspan x="0" y="24">J</tspan>
                      </text>
                      <text id="O" font-family="SourceSansPro-Black, Source Sans Pro" font-size="24" font-weight="700" fill="#404660">
                          <tspan x="10" y="24">O</tspan>
                      </text>
                      <text id="B" font-family="SourceSansPro-Black, Source Sans Pro" font-size="24" font-weight="700" fill="#404660">
                          <tspan x="24" y="24">B</tspan>
                      </text>
                      <text id="T" font-family="SourceSansPro-Regular, Source Sans Pro" font-size="24" font-weight="normal" fill="#404660">
                          <tspan x="37" y="24">T</tspan>
                      </text>
                      <text id="R" font-family="SourceSansPro-Regular, Source Sans Pro" font-size="24" font-weight="normal" fill="#404660">
                          <tspan x="48" y="24">R</tspan>
                      </text>
                      <text id="B" font-family="SourceSansPro-Regular, Source Sans Pro" font-size="24" font-weight="normal" fill="#404660">
                          <tspan x="66" y="24">B</tspan>
                      </text>
                      <g id="noun_Arrow_37901" stroke-width="1" fill-rule="evenodd" transform="translate(60.000000, 7.000000)" fill="#404660">
                          <g id="Group" transform="translate(4.422395, 8.718959) rotate(-90.000000) translate(-4.422395, -8.718959) translate(-4.077605, 5.218959)">
                              <path d="M13.372293,6.23375796 C13.2092357,6.23375796 13.0468153,6.17229299 12.922293,6.0477707 C12.6735669,5.79904459 12.6732484,5.39585987 12.9216561,5.14713376 L14.8824841,3.18280255 L12.916879,1.22388535 C12.6678344,0.975477707 12.6671975,0.572292994 12.9152866,0.323248408 C13.1633758,0.073566879 13.566879,0.0732484076 13.816242,0.321656051 L16.2334395,2.73025478 C16.3531847,2.84968153 16.4203822,3.01178344 16.4207006,3.18057325 C16.4210191,3.34936306 16.3538217,3.51178344 16.2343949,3.63121019 L13.8229299,6.04713376 C13.6987261,6.17165605 13.5356688,6.23375796 13.372293,6.23375796 Z" id="Path"></path>
                              <path d="M0.644585987,5.55955414 C0.518152866,5.55955414 0.391401274,5.5111465 0.294904459,5.41464968 C0.101592357,5.22133758 0.101273885,4.90764331 0.294585987,4.71433121 L1.81815287,3.18917197 L0.286624204,1.67452229 C0.0923566879,1.48216561 0.0904458599,1.16878981 0.282802548,0.974522293 C0.475159236,0.779936306 0.788535032,0.778343949 0.982802548,0.970700637 L2.86783439,2.83503185 C2.96146497,2.92770701 3.01433121,3.05414013 3.01464968,3.18566879 C3.01496815,3.31751592 2.96305732,3.44394904 2.86974522,3.53726115 L0.994904459,5.41401274 C0.898407643,5.5111465 0.77133758,5.55955414 0.644585987,5.55955414 Z" id="Path"></path>
                              <path d="M2.74299363,5.5544586 C2.61656051,5.5544586 2.48980892,5.5066879 2.3933121,5.40955414 C2.2,5.21687898 2.19968153,4.90318471 2.39267516,4.70987261 L3.91624204,3.1843949 L2.38471338,1.67006369 C2.19044586,1.47770701 2.18853503,1.16433121 2.38057325,0.970063694 C2.57261146,0.775796178 2.88630573,0.773566879 3.08057325,0.965923567 L4.9656051,2.83025478 C5.05923567,2.92292994 5.11210191,3.04936306 5.11242038,3.18089172 C5.11273885,3.31242038 5.06082803,3.4388535 4.96783439,3.53216561 L3.09299363,5.40987261 C2.99649682,5.50605096 2.86974522,5.5544586 2.74299363,5.5544586 Z" id="Path"></path>
                              <path d="M15.0426752,3.82165605 L2.46050955,3.82165605 C2.1089172,3.82165605 1.82356688,3.53630573 1.82356688,3.18471338 C1.82356688,2.83312102 2.1089172,2.5477707 2.46050955,2.5477707 L15.0429936,2.5477707 C15.394586,2.5477707 15.6799363,2.83312102 15.6799363,3.18471338 C15.6796178,3.53630573 15.394586,3.82165605 15.0426752,3.82165605 Z" id="Path"></path>
                          </g>
                      </g>
                      <text id="O" font-family="SourceSansPro-Regular, Source Sans Pro" font-size="24" font-weight="normal" fill="#404660">
                          <tspan x="78" y="24">O</tspan>
                      </text>
                      <text id="O-Copy" font-family="SourceSansPro-Regular, Source Sans Pro" font-size="24" font-weight="normal" fill="#404660">
                          <tspan x="92" y="24">O</tspan>
                      </text>
                      <g id="Clipped" stroke-width="1" fill-rule="evenodd" transform="translate(102.000000, 1.000000)">
                          <mask id="mask-2" fill="white">
                              <use xlink:href="#path-1"></use>
                          </mask>
                          <g id="b"></g>
                          <path d="M3.64609288,6.59648812 C3.97831953,6.41053108 4.82866155,6.26018285 5.57617151,6.15335647 C5.7106442,5.9634429 5.83720673,5.76957281 5.95981418,5.56778964 C5.59199182,5.58757231 5.18461867,5.62713763 4.74164981,5.66670296 C4.98290963,5.53218085 5.54453087,5.36204995 6.16152322,5.19983211 C6.51352526,4.53909117 6.80224604,3.80713265 7,3 C5.54848595,3.28091381 4.37382745,3.72404546 3.42460845,4.2502643 C3.39296782,4.61030876 3.32968655,4.93870096 3.21103418,5.14444066 C3.18334862,4.89122257 3.15566307,4.64987409 3.12402244,4.42435173 C0.545310831,5.9871821 -0.249660078,8.20284034 -0.562111331,9.45706117 C-1.43222874,10.6677601 -1.96220935,11.8072415 -1.99780506,11.9536332 C-2.0096703,12.0011116 -1.97011951,12.0129812 -1.95825427,11.9852855 C-1.12373257,10.7073255 1.57363141,6.52922706 5.4061031,4.3847864 C3.16752831,6.09005195 1.24140476,8.20284034 0.0232403832,9.6430182 C1.98891472,9.27110414 3.81616129,8.28592753 5.15297804,6.69935796 C4.76933536,6.58857505 4.23935475,6.56483586 3.64609288,6.59648812" id="Path" fill="#404660" mask="url(#mask-2)"></path>
                      </g>
                      <g id="Clipped-Copy" stroke-width="1" fill-rule="evenodd" transform="translate(109.831780, 9.290571) rotate(29.000000) translate(-109.831780, -9.290571) translate(105.331780, 4.790571)">
                          <mask id="mask-4" fill="white">
                              <use xlink:href="#path-3"></use>
                          </mask>
                          <g id="b"></g>
                          <path d="M3.64609288,6.59648812 C3.97831953,6.41053108 4.82866155,6.26018285 5.57617151,6.15335647 C5.7106442,5.9634429 5.83720673,5.76957281 5.95981418,5.56778964 C5.59199182,5.58757231 5.18461867,5.62713763 4.74164981,5.66670296 C4.98290963,5.53218085 5.54453087,5.36204995 6.16152322,5.19983211 C6.51352526,4.53909117 6.80224604,3.80713265 7,3 C5.54848595,3.28091381 4.37382745,3.72404546 3.42460845,4.2502643 C3.39296782,4.61030876 3.32968655,4.93870096 3.21103418,5.14444066 C3.18334862,4.89122257 3.15566307,4.64987409 3.12402244,4.42435173 C0.545310831,5.9871821 -0.249660078,8.20284034 -0.562111331,9.45706117 C-1.43222874,10.6677601 -1.96220935,11.8072415 -1.99780506,11.9536332 C-2.0096703,12.0011116 -1.97011951,12.0129812 -1.95825427,11.9852855 C-1.12373257,10.7073255 1.57363141,6.52922706 5.4061031,4.3847864 C3.16752831,6.09005195 1.24140476,8.20284034 0.0232403832,9.6430182 C1.98891472,9.27110414 3.81616129,8.28592753 5.15297804,6.69935796 C4.76933536,6.58857505 4.23935475,6.56483586 3.64609288,6.59648812" id="Path" fill="#404660" mask="url(#mask-4)"></path>
                      </g>
                  </g>
              </g>
          </g>
      </g>
  </g>
</svg>