<?xml version="1.0" encoding="UTF-8"?>
<svg width="16px" height="7px" viewBox="0 0 16 7" version="1.1" xmlns="http://www.w3.org/2000/svg" xmlns:xlink="http://www.w3.org/1999/xlink">
    <!-- Generator: Sketch 52.6 (67491) - http://www.bohemiancoding.com/sketch -->
    <title>Link_Icon</title>
    <desc>Created with Sketch.</desc>
    <g id="Page-1" stroke="none" stroke-width="1" fill="none" fill-rule="evenodd">
        <g id="DB_COMPANIES_R" transform="translate(-825.000000, -260.000000)" fill="#404660" fill-rule="nonzero">
            <g id="COMPANIES_LIST" transform="translate(280.000000, 113.000000)">
                <g id="Data">
                    <g id="NotOpenBoxCompany" transform="translate(0.000000, 50.000000)">
                        <g id="Link_Icon" transform="translate(553.000000, 100.500000) rotate(-180.000000) translate(-553.000000, -100.500000) translate(545.000000, 97.000000)">
                            <path d="M3.04000001,0.362495011 C1.36414401,0.362495011 0,1.70861507 0,3.36231293 C0,5.01601869 1.36414401,6.36213243 3.04000001,6.36213243 L6.08000012,6.36213243 C6.25310536,6.36454821 6.41411919,6.27480202 6.50138624,6.12725942 C6.58865329,5.97971683 6.58865329,5.79723661 6.50138624,5.64969402 C6.41411919,5.50215142 6.25310536,5.41240523 6.08000012,5.41482101 L3.04000001,5.41482101 C1.87937596,5.41482101 0.960000043,4.50759665 0.960000043,3.36231293 C0.960000043,2.21703711 1.87937596,1.30981275 3.04000001,1.30981275 L6.40000013,1.30981275 C7.56062417,1.30981275 8.48000021,2.21703711 8.48000021,3.36231293 C8.47755207,3.53313019 8.56850035,3.69201584 8.71801918,3.77812946 C8.86753801,3.86424308 9.05246243,3.86424308 9.20198126,3.77812946 C9.3515001,3.69201584 9.44244838,3.53313019 9.44000024,3.36231293 C9.44000024,1.70861507 8.07585619,0.362495011 6.40000013,0.362495011 L3.04000001,0.362495011 Z M9.88499226,0.362495011 C9.71348176,0.368635996 9.55832327,0.464611491 9.47797584,0.614260812 C9.3976284,0.763910133 9.40430179,0.944492256 9.49548167,1.08796926 C9.58666155,1.23144627 9.74849203,1.3160151 9.92000026,1.30981275 L12.9600004,1.30981275 C14.1206244,1.30981275 15.0400004,2.21703711 15.0400004,3.36231293 C15.0400004,4.50759665 14.1206244,5.41482101 12.9600004,5.41482101 L9.60000025,5.41482101 C8.4393762,5.41482101 7.52000017,4.50759665 7.52000017,3.36231293 C7.52244831,3.19149567 7.43150003,3.03261002 7.28198119,2.9464964 C7.13246236,2.86038278 6.94753794,2.86038278 6.79801911,2.9464964 C6.64850028,3.03261002 6.557552,3.19149567 6.56000014,3.36231293 C6.56000014,5.01601869 7.92414419,6.36213243 9.60000025,6.36213243 L12.9600004,6.36213243 C14.6358564,6.36213243 16,5.01601869 16,3.36231293 C16,1.70861507 14.6358564,0.362495011 12.9600004,0.362495011 L9.92000026,0.362495011 C9.90833481,0.362074996 9.89665771,0.362074996 9.88499226,0.362495011 Z" id="Shape"></path>
                        </g>
                    </g>
                </g>
            </g>
        </g>
    </g>
</svg>