<?xml version="1.0" encoding="UTF-8"?>
<svg width="11px" height="15px" viewBox="0 0 11 15" version="1.1" xmlns="http://www.w3.org/2000/svg" xmlns:xlink="http://www.w3.org/1999/xlink">
    <!-- Generator: Sketch 52.6 (67491) - http://www.bohemiancoding.com/sketch -->
    <title>Shape</title>
    <desc>Created with Sketch.</desc>
    <g id="Page-1" stroke="none" stroke-width="1" fill="none" fill-rule="evenodd">
        <g id="DB_COMPANIES_R" transform="translate(-416.000000, -231.000000)" fill="#404660" fill-rule="nonzero">
            <g id="COMPANIES_LIST" transform="translate(280.000000, 113.000000)">
                <g id="Data">
                    <g id="NotOpenBoxCompany" transform="translate(0.000000, 50.000000)">
                        <g id="Details" transform="translate(134.000000, 49.000000)">
                            <g id="Location" transform="translate(2.000000, 19.000000)">
                                <g id="Location_Logo">
                                    <path d="M9.87535014,2.22457627 C8.82773109,0.805084746 7.2254902,0 5.5,0 C3.7745098,0 2.17226891,0.805084746 1.12464986,2.22457627 C-0.374883287,4.25847458 -0.374883287,7.07627119 1.12464986,9.11016949 L5.5,15 L9.87535014,9.11016949 C11.3748833,7.07627119 11.3748833,4.25847458 9.87535014,2.22457627 Z M5.5,2.56355932 C7.08169935,2.56355932 8.37581699,3.89830508 8.37581699,5.52966102 C8.37581699,7.16101695 7.08169935,8.49576271 5.5,8.49576271 C3.91830065,8.49576271 2.62418301,7.16101695 2.62418301,5.52966102 C2.62418301,3.89830508 3.91830065,2.56355932 5.5,2.56355932 Z" id="Shape"></path>
                                </g>
                            </g>
                        </g>
                    </g>
                </g>
            </g>
        </g>
    </g>
</svg>