<?xml version="1.0" encoding="UTF-8"?>
<svg width="10px" height="10px" viewBox="0 0 10 10" version="1.1" xmlns="http://www.w3.org/2000/svg" xmlns:xlink="http://www.w3.org/1999/xlink">
    <!-- Generator: Sketch 52.6 (67491) - http://www.bohemiancoding.com/sketch -->
    <title>Inbox_icon</title>
    <desc>Created with Sketch.</desc>
    <g id="Page-1" stroke="none" stroke-width="1" fill="none" fill-rule="evenodd">
        <g id="PROFIL_MSG_CD" transform="translate(-60.000000, -245.000000)" fill="#404660">
            <g id="Menu" transform="translate(0.000000, 60.000000)">
                <g id="Inbox_Opt" transform="translate(50.000000, 170.000000)">
                    <g id="Inbox_icon" transform="translate(10.000000, 15.000000)">
                        <g id="Group">
                            <path style="fill: #246BF8" d="M8.68181818,2.42682927 C8.62842736,2.2954906 8.50850456,2.20969216 8.375,2.20731707 L7.04545455,2.20731707 L7.04545455,2.93902439 L8.14772727,2.93902439 L9.10227273,5.18292683 L7.15909091,5.18292683 C7.02821532,5.18310016 6.90898543,5.26366381 6.85227273,5.3902439 L6.26136364,6.76829268 L3.73863636,6.76829268 L3.14772727,5.3902439 C3.09101457,5.26366381 2.97178468,5.18310016 2.84090909,5.18292683 L0.943181818,5.18292683 L2.06818182,2.93902439 L2.95454545,2.93902439 L2.95454545,2.20731707 L1.86363636,2.20731707 C1.73937192,2.20969796 1.62616133,2.28446368 1.56818182,2.40243902 L0.0795454545,5.35365854 C0.0515596912,5.40569991 0.0359484078,5.46433742 0.0340909091,5.52439024 L0.0340909091,9.54878049 C0.0340909091,9.75083588 0.186721108,9.91463415 0.375,9.91463415 L9.625,9.91463415 C9.81327889,9.91463415 9.96590909,9.75083588 9.96590909,9.54878049 L9.96590909,5.53658537 C9.96414126,5.4857931 9.95253088,5.4359534 9.93181818,5.3902439 L8.68181818,2.42682927 Z" id="Path"></path>
                            <path style="fill: #246BF8" d="M4.65909091,0.0853658537 L4.65909091,3.69512195 L3.69318182,2.65853659 L3.21590909,3.17073171 L4.76136364,4.84146341 C4.89392392,4.98090593 5.10607608,4.98090593 5.23863636,4.84146341 L6.79545455,3.18292683 L6.31818182,2.67073171 L5.34090909,3.69512195 L5.34090909,0.0853658537 L4.65909091,0.0853658537 Z" id="Path"></path>
                        </g>
                    </g>
                </g>
            </g>
        </g>
    </g>
</svg>