<?xml version="1.0" encoding="UTF-8"?>
<svg width="12px" height="10px" viewBox="0 0 12 10" version="1.1" xmlns="http://www.w3.org/2000/svg" xmlns:xlink="http://www.w3.org/1999/xlink">
    <!-- Generator: Sketch 52.6 (67491) - http://www.bohemiancoding.com/sketch -->
    <title>Shape</title>
    <desc>Created with Sketch.</desc>
    <g id="Page-1" stroke="none" stroke-width="1" fill="none" fill-rule="evenodd">
        <g id="DB_GEN_R" transform="translate(-59.000000, -205.000000)" fill="#404660">
            <g id="noun_avatar_1639756-(1)" transform="translate(59.000000, 205.000000)">
                <path d="M12,10 C12,8.09004522 10.6252308,6.47890549 8.74584615,5.97630088 C8.39446154,6.27053638 7.98892308,6.50810006 7.55138462,6.67468086 C7.06,6.86158338 6.53076923,6.95718129 6,6.95718129 C5.46953846,6.95718129 4.94030769,6.86158338 4.44892308,6.67468086 C4.01138462,6.50810006 3.60553846,6.27053638 3.25446154,5.97630088 C1.37507692,6.47861927 0,8.089759 0,9.99942756 C0,9.99971378 0,10 0,10 L12,10 Z M5.97907692,6.2788368 L5.97846154,6.2788368 L5.96676923,6.2788368 L5.95938462,6.2788368 L5.95876923,6.2788368 L5.95661538,6.2788368 L5.94030769,6.27855058 L5.93876923,6.27855058 L5.93846154,6.27855058 C5.50984615,6.27139504 5.10061538,6.18953575 4.72492308,6.04671132 L4.70923077,6.04098689 L4.70738462,6.04012823 L4.70584615,6.03955578 L4.70153846,6.03783846 L4.69384615,6.03469002 L4.69015385,6.03354514 L4.68707692,6.03211403 L4.68276923,6.0303967 L4.67815385,6.02867937 L4.67323077,6.02667583 L4.668,6.02467228 L4.66461538,6.02324117 L4.66276923,6.02238251 L4.65753846,6.02037896 C3.46215385,5.53723739 2.62523077,4.42841605 2.62523077,3.13956151 C2.62523077,1.40677772 4.13753846,0 6,0 C7.86276923,0 9.37507692,1.40677772 9.37507692,3.13956151 C9.37507692,4.42841605 8.53815385,5.53723739 7.34276923,6.02037896 L7.33753846,6.02238251 L7.33569231,6.02324117 L7.33230769,6.02467228 L7.32676923,6.02667583 L7.32215385,6.02867937 L7.31753846,6.0303967 L7.31323077,6.03211403 L7.31015385,6.03354514 L7.30646154,6.03469002 L7.29876923,6.03783846 L7.29446154,6.03955578 L7.29292308,6.04012823 L7.29107692,6.04098689 L7.27538462,6.04671132 C6.89969231,6.18953575 6.49046154,6.27139504 6.06184615,6.27855058 L6.06153846,6.27855058 L6.05969231,6.27855058 L6.04369231,6.2788368 L6.04153846,6.2788368 L6.04092308,6.2788368 L6.03353846,6.2788368 L6.02184615,6.2788368 L6.02123077,6.2788368 L6.02061538,6.2788368 L6,6.27912302 L5.97969231,6.2788368 L5.97907692,6.2788368 Z" id="Shape"></path>
            </g>
        </g>
    </g>
</svg>