<?xml version="1.0" encoding="UTF-8"?>
<svg width="11px" height="11px" viewBox="0 0 11 11" version="1.1" xmlns="http://www.w3.org/2000/svg" xmlns:xlink="http://www.w3.org/1999/xlink">
    <!-- Generator: Sketch 52.6 (67491) - http://www.bohemiancoding.com/sketch -->
    <title>Create_Icon Copy</title>
    <desc>Created with Sketch.</desc>
    <g id="Page-1" stroke="none" stroke-width="1" fill="none" fill-rule="evenodd">
        <g id="DB_COMPANIES2_R" transform="translate(-956.000000, -162.000000)" fill="#404660">
            <g id="COMPANIES_LIST" transform="translate(280.000000, 113.000000)">
                <g id="OpenBoxCompany" transform="translate(0.000000, 39.000000)">
                    <g id="Create_Icon-Copy" transform="translate(681.485281, 15.485281) rotate(-315.000000) translate(-681.485281, -15.485281) translate(675.485281, 9.485281)">
                        <path d="M4,4.36363636 L1.63636364,4.36363636 C0.732624945,4.36363636 0,5.09626131 0,6 C0,6.90373869 0.732624945,7.63636364 1.63636364,7.63636364 L4,7.63636364 C4.2008308,7.63636364 4.36363636,7.7991692 4.36363636,8 L4.36363636,10.3636364 C4.36363636,11.2673751 5.09626131,12 6,12 C6.90373869,12 7.63636364,11.2673751 7.63636364,10.3636364 L7.63636364,8 C7.63636364,7.7991692 7.7991692,7.63636364 8,7.63636364 L10.3636364,7.63636364 C11.2673751,7.63636364 12,6.90373869 12,6 C12,5.09626131 11.2673751,4.36363636 10.3636364,4.36363636 L8,4.36363636 C7.7991692,4.36363636 7.63636364,4.2008308 7.63636364,4 L7.63636364,1.63636364 C7.63636364,0.732624945 6.90373869,0 6,0 C5.09626131,0 4.36363636,0.732624945 4.36363636,1.63636364 L4.36363636,4 C4.36363636,4.2008308 4.2008308,4.36363636 4,4.36363636 Z" id="Path"></path>
                    </g>
                </g>
            </g>
        </g>
    </g>
</svg>