<?xml version="1.0" encoding="UTF-8"?>
<svg width="6px" height="6px" viewBox="0 0 6 6" version="1.1" xmlns="http://www.w3.org/2000/svg" xmlns:xlink="http://www.w3.org/1999/xlink">
    <!-- Generator: Sketch 52.6 (67491) - http://www.bohemiancoding.com/sketch -->
    <title>Remove_Logo</title>
    <desc>Created with Sketch.</desc>
    <g id="Page-1" stroke="none" stroke-width="1" fill="none" fill-rule="evenodd">
        <g id="PROFIL_INFO_CD" transform="translate(-1068.000000, -919.000000)" fill="#FFFFFF">
            <g id="INFORMATION" transform="translate(280.000000, 113.000000)">
                <g id="Skills" transform="translate(0.000000, 529.000000)">
                    <g id="SkillsInput" transform="translate(25.000000, 190.000000)">
                        <g id="IPT_Skills" transform="translate(0.000000, 74.000000)">
                            <g id="Skill">
                                <g id="Remove_Logo" transform="translate(763.000000, 13.000000)">
                                    <path d="M5.80548675,4.92757933 C5.16614113,4.27869124 4.52679551,3.63934562 3.88744989,3 C4.52679551,2.36065438 5.16614113,1.72130876 5.81502922,1.07242067 C6.38757754,0.499872353 5.50012765,-0.387577537 4.92757933,0.184970779 C4.27869124,0.83385887 3.63934562,1.47320449 3,2.11255011 C2.36065438,1.47320449 1.72130876,0.83385887 1.07242067,0.194513251 C0.499872353,-0.378035065 -0.387577537,0.509414825 0.184970779,1.08196314 C0.83385887,1.72130876 1.47320449,2.36065438 2.11255011,3 C1.47320449,3.63934562 0.83385887,4.27869124 0.194513251,4.92757933 C-0.378035065,5.50012765 0.509414825,6.38757754 1.08196314,5.81502922 C1.72130876,5.16614113 2.36065438,4.52679551 3,3.88744989 C3.63934562,4.52679551 4.27869124,5.16614113 4.92757933,5.81502922 C5.49058518,6.37803507 6.37803507,5.49058518 5.80548675,4.92757933 Z" id="Path"></path>
                                </g>
                            </g>
                        </g>
                    </g>
                </g>
            </g>
        </g>
    </g>
</svg>