<?xml version="1.0" encoding="UTF-8"?>
<svg width="16px" height="16px" viewBox="0 0 16 16" version="1.1" xmlns="http://www.w3.org/2000/svg" xmlns:xlink="http://www.w3.org/1999/xlink">
    <!-- Generator: Sketch 52.6 (67491) - http://www.bohemiancoding.com/sketch -->
    <title>Search_Icon</title>
    <desc>Created with Sketch.</desc>
    <g id="Page-1" stroke="none" stroke-width="1" fill="none" fill-rule="evenodd" opacity="0.501069568">
        <g id="PROFIL_INFO_CD" transform="translate(-318.000000, -871.000000)" fill="#404660" fill-rule="nonzero">
            <g id="INFORMATION" transform="translate(280.000000, 113.000000)">
                <g id="Skills" transform="translate(0.000000, 529.000000)">
                    <g id="SkillsInput" transform="translate(25.000000, 190.000000)">
                        <g id="Search_Icon" transform="translate(13.000000, 39.000000)">
                            <path d="M15.8538358,15.1343245 L11.4968848,10.7554562 C13.7421229,8.05905038 13.4694353,4.0594026 10.8792859,1.69681909 C8.28913645,-0.665764412 4.30686009,-0.547247079 1.85999261,1.96524411 C-0.586874874,4.47773529 -0.624186351,8.48660902 1.77548739,11.0447767 C4.17516112,13.6029443 8.15453298,13.7964965 10.7882023,11.4831451 L15.1270746,15.8492789 C15.2562521,15.9792681 15.4445324,16.0300346 15.6209921,15.9824553 C15.7974519,15.934876 15.9352826,15.7961792 15.9825648,15.6186108 C16.0298471,15.4410424 15.9793975,15.2515791 15.85022,15.12159 L15.8538358,15.1343245 Z M2.58050225,10.4989458 C0.440035451,8.3399729 0.442751271,4.84410603 2.58656992,2.68850339 C4.73038856,0.532900739 8.2044288,0.532900739 10.3482475,2.68850339 C12.4920661,4.84410603 12.4947819,8.3399729 10.3543151,10.4989458 C8.20745371,12.6586699 4.72736365,12.6586699 2.58050225,10.4989458 Z" id="Shape"></path>
                        </g>
                    </g>
                </g>
            </g>
        </g>
    </g>
</svg>