<?xml version="1.0" encoding="UTF-8"?>
<svg width="10px" height="10px" viewBox="0 0 10 10" version="1.1" xmlns="http://www.w3.org/2000/svg" xmlns:xlink="http://www.w3.org/1999/xlink">
    <!-- Generator: Sketch 52.6 (67491) - http://www.bohemiancoding.com/sketch -->
    <title>Sent_Icon</title>
    <desc>Created with Sketch.</desc>
    <g id="Page-1" stroke="none" stroke-width="1" fill="none" fill-rule="evenodd" opacity="0.748651414">
        <g id="DB_INBOX_R" transform="translate(-380.000000, -462.000000)" fill="#404660">
            <g id="INBOX" transform="translate(280.000000, 113.000000)">
                <g id="Box_LSent" transform="translate(0.000000, 293.000000)">
                    <g id="Sent_Icon" transform="translate(105.000000, 61.000000) rotate(-90.000000) translate(-105.000000, -61.000000) translate(100.000000, 56.000000)">
                        <path d="M9.98312514,5.64493219 C9.94904125,5.56272861 9.86836169,5.50893047 9.77905331,5.50893047 L7.83778227,5.50893047 C7.72107735,2.45168926 5.19132007,0 2.09853208,0 C1.42591477,0 0.76882935,0.114912852 0.145180674,0.341725854 C0.057813772,0.373574369 -0.000215107615,0.456423505 5.99331452e-07,0.549171528 C0.000216306278,0.641919551 0.0584609149,0.724553486 0.145827839,0.755971621 C2.16928851,1.48418337 3.55076419,3.37658705 3.6402883,5.50893049 L1.65673598,5.50893049 C1.56742758,5.50893049 1.48674801,5.56251345 1.45266415,5.64493221 C1.41836456,5.72735096 1.43734799,5.82203571 1.50055416,5.88508716 L5.56063402,9.93544221 C5.6020524,9.97675919 5.65813981,10 5.71681586,10 C5.7754919,10 5.83157931,9.97675919 5.87299769,9.93544221 L9.93523517,5.88508716 C9.99844133,5.82225089 10.0174248,5.72735096 9.98312514,5.64493219 Z" id="Path"></path>
                    </g>
                </g>
            </g>
        </g>
    </g>
</svg>