<?xml version="1.0" encoding="UTF-8"?>
<svg width="10px" height="10px" viewBox="0 0 10 10" version="1.1" xmlns="http://www.w3.org/2000/svg" xmlns:xlink="http://www.w3.org/1999/xlink">
    <!-- Generator: Sketch 52.6 (67491) - http://www.bohemiancoding.com/sketch -->
    <title>Settings_Icon</title>
    <desc>Created with Sketch.</desc>
    <g id="Page-1" stroke="none" stroke-width="1" fill="none" fill-rule="evenodd">
        <g id="PROFIL_SETTINGS_CD" transform="translate(-60.000000, -285.000000)" fill="#404660" fill-rule="nonzero">
            <g id="Menu" transform="translate(0.000000, 60.000000)">
                <g id="Seetings_Opt" transform="translate(50.000000, 210.000000)">
                    <g id="Settings_Icon" transform="translate(10.000000, 15.000000)">
                        <path d="M9.86723755,2.89275266 C9.71127194,2.53171028 9.28136673,2.25767812 8.91044851,2.28368117 C8.53953029,2.30968422 8.11062486,2.1646672 7.92066674,1.98364595 C7.73070862,1.8026247 7.57674257,1.37457446 7.59073948,1.00153067 C7.6047364,0.628486887 7.31779966,0.210437818 6.95088056,0.064420679 C6.58396146,-0.0815964599 6.0880708,0.0294165704 5.84412458,0.308449322 C5.60017837,0.587482074 5.19126853,0.792506139 4.93132584,0.800507078 C4.67138315,0.808508017 4.25747441,0.613485126 4.00552996,0.341453196 C3.75358551,0.069421266 3.25269595,-0.0275901209 2.89177553,0.128428192 C2.53085511,0.284446505 2.25491595,0.714496983 2.28091021,1.08554053 C2.30690448,1.45658409 2.16193645,1.88563445 1.98097634,2.07565675 C1.80001624,2.26567906 1.37211059,2.4176969 1.00119237,2.40569549 C0.630274152,2.39369408 0.210366735,2.67972765 0.0643989186,3.04677074 C-0.0815688978,3.41381382 0.0294066339,3.90987204 0.308345132,4.15390069 C0.587283631,4.39792933 0.792238442,4.80697734 0.800236678,5.06600775 C0.808234915,5.32503815 0.614277679,5.74008687 0.341337858,5.99211645 C0.0683980369,6.24414603 -0.0295803605,6.74420473 0.128384811,7.10724734 C0.286349982,7.47028995 0.714255636,7.74432212 1.08517385,7.71831907 C1.45609207,7.69231601 1.88499751,7.83733304 2.07495562,8.01835428 C2.26491374,8.19937553 2.41887979,8.62542554 2.40488288,8.99846933 C2.39088597,9.37151311 2.6778227,9.78956218 3.04574158,9.93557932 C3.41366046,10.0815965 3.90855135,9.97058343 4.15249756,9.69155068 C4.39644377,9.41251793 4.80435384,9.20749386 5.06429652,9.20349339 C5.32423921,9.19949292 5.73814795,9.39251558 5.99209196,9.66454751 C6.24603597,9.93657944 6.74592575,10.0295904 7.10684617,9.87357204 C7.4677666,9.71755373 7.74370576,9.28950349 7.71771149,8.91845994 C7.69171722,8.54741638 7.83668526,8.11836602 8.01764536,7.92834372 C8.19860546,7.73832141 8.62551133,7.58630357 8.99842911,7.60130533 C9.37134689,7.61630709 9.78925475,7.32827328 9.93522256,6.96023008 C10.0811904,6.59218689 9.97221441,6.09712878 9.69127635,5.8510999 C9.41033829,5.60507102 9.20538348,5.2010236 9.19838502,4.93799272 C9.19138657,4.67496185 9.3853438,4.2639136 9.6592834,4.01188402 C9.93786386,3.70982852 10.0187049,3.27477255 9.86723755,2.89275266 Z M5.76814134,6.78720978 C5.04562459,7.0996969 4.20606676,6.94588194 3.64115806,6.39752625 C3.07624936,5.84917056 2.89731143,5.01433381 3.18782657,4.28250364 C3.47834172,3.55067347 4.18106067,3.06606525 4.96813448,3.05476979 C5.7552083,3.04347433 6.47153522,3.50771751 6.78291759,4.23090973 C7.20791854,5.21632097 6.7552879,6.3599127 5.77114067,6.78720978 L5.76814134,6.78720978 Z" id="Shape"></path>
                    </g>
                </g>
            </g>
        </g>
    </g>
</svg>