<?xml version="1.0" encoding="UTF-8"?>
<svg width="16px" height="16px" viewBox="0 0 16 16" version="1.1" xmlns="http://www.w3.org/2000/svg" xmlns:xlink="http://www.w3.org/1999/xlink">
    <!-- Generator: Sketch 52.6 (67491) - http://www.bohemiancoding.com/sketch -->
    <title>Company_Tribe_Logo</title>
    <desc>Created with Sketch.</desc>
    <g id="Page-1" stroke="none" stroke-width="1" fill="none" fill-rule="evenodd">
        <g id="DB_COMPANIES_R" transform="translate(-413.000000, -211.000000)" fill="#404660" fill-rule="nonzero" stroke="#404660" stroke-width="0.3">
            <g id="COMPANIES_LIST" transform="translate(280.000000, 113.000000)">
                <g id="Data">
                    <g id="NotOpenBoxCompany" transform="translate(0.000000, 50.000000)">
                        <g id="Details" transform="translate(134.000000, 49.000000)">
                            <g id="Triboo">
                                <g id="Company_Tribe_Logo">
                                    <path d="M13.825,1.79152832 L8.86559144,1.79152832 C8.824234,0.796974185 8.00453033,0 7,0 C5.99546967,0 5.175766,0.796974185 5.13440856,1.79152832 L0.175,1.79152832 C0.0783569325,1.79152832 0,1.86988525 0,1.96652832 L0,2.33096923 C0,3.74429932 1.14980469,4.894104 2.56313477,4.894104 L5.13045655,4.894104 L5.13045655,5.44696045 L4.96314698,5.44696045 C4.86650391,5.44696045 4.78814698,5.52531738 4.78814698,5.62196045 L4.78814698,8.77631835 C4.51690979,8.88740233 4.32501221,9.1534912 4.32501221,9.46418457 L4.32501221,13.825 C4.32501221,13.9216431 4.40336914,14 4.50001221,14 L9.4999878,14 C9.59663087,14 9.6749878,13.9216431 9.6749878,13.825 L9.6749878,9.46418457 C9.6749878,9.15349122 9.48309022,8.88740235 9.21185303,8.77631835 L9.21185303,5.62196045 C9.21185303,5.52531738 9.1334961,5.44696045 9.03685303,5.44696045 L8.86954346,5.44696045 L8.86954346,4.894104 L11.4368652,4.894104 C12.8501953,4.894104 14,3.74429932 14,2.33096923 L14,1.96652832 C14,1.86988525 13.9216431,1.79152832 13.825,1.79152832 Z M9.7715454,2.14152832 L12.6005982,2.14152832 L12.6005982,2.23817139 C12.6005982,2.90245361 12.0602173,3.44283448 11.3959351,3.44283448 L9.7715454,3.44283448 L9.7715454,2.14152832 Z M1.39940183,2.14152832 L4.22845458,2.14152832 L4.22845458,3.44283448 L2.60406492,3.44283448 C1.93978271,3.44283448 1.39940183,2.90245363 1.39940183,2.23817139 L1.39940183,2.14152832 Z M2.56313477,4.54410401 C1.34283447,4.54410401 0.35,3.55126954 0.35,2.33096924 L0.35,2.14152832 L1.04940185,2.14152832 L1.04940185,2.23817139 C1.04940185,3.09539795 1.74683838,3.79283448 2.60406494,3.79283448 L4.4034546,3.79283448 C4.50009766,3.79283448 4.5784546,3.71447755 4.5784546,3.61783448 L4.5784546,2.14152832 L5.13045655,2.14152832 L5.13045655,4.54410401 L2.56313477,4.54410401 Z M8.86185304,5.79696044 L8.86185304,6.38323823 L7,7.55354003 L5.13814697,6.38323821 L5.13814697,5.79696044 L8.86185304,5.79696044 Z M5.13814697,8.72043459 L5.13814697,6.7966629 L6.90686035,7.90841063 C6.93531494,7.92626954 6.9677002,7.9352417 7,7.9352417 C7.0322998,7.9352417 7.06468506,7.92626954 7.09313966,7.90841065 L8.86185304,6.7966629 L8.86185304,8.72043459 L5.13814697,8.72043459 Z M4.67501221,13.65 L4.67501221,10.8218872 L9.32498781,10.8218872 L9.32498781,13.65 L4.67501221,13.65 Z M9.32498781,10.4718872 L8.89184569,10.4718872 L8.89184569,10.0358399 C8.89184569,9.93919679 8.81348876,9.86083985 8.71684569,9.86083985 C8.62020262,9.86083985 8.54184569,9.93919679 8.54184569,10.0358399 L8.54184569,10.4718872 L8.03342285,10.4718872 L8.03342285,10.0358399 C8.03342285,9.93919679 7.95506591,9.86083985 7.85842285,9.86083985 C7.76177978,9.86083985 7.68342285,9.93919679 7.68342285,10.0358399 L7.68342285,10.4718872 L7.175,10.4718872 L7.175,10.0358399 C7.175,9.93919679 7.09664307,9.86083985 7,9.86083985 C6.90335693,9.86083985 6.825,9.93919679 6.825,10.0358399 L6.825,10.4718872 L6.31657716,10.4718872 L6.31657716,10.0358399 C6.31657716,9.93919679 6.23822022,9.86083985 6.14157716,9.86083985 C6.04493409,9.86083985 5.96657716,9.93919679 5.96657716,10.0358399 L5.96657716,10.4718872 L5.45815431,10.4718872 L5.45815431,10.0358399 C5.45815431,9.93919679 5.37979738,9.86083985 5.28315431,9.86083985 C5.18651124,9.86083985 5.10815431,9.93919679 5.10815431,10.0358399 L5.10815431,10.4718872 L4.67501221,10.4718872 L4.67501221,9.46418457 C4.67501221,9.2470581 4.85172119,9.07043457 5.06884767,9.07043457 L8.93115235,9.07043457 C9.14827883,9.07043457 9.32498781,9.2470581 9.32498781,9.46418457 L9.32498781,10.4718872 Z M7.83740234,5.44696045 L7.83740234,5.04005128 C7.83740234,4.94340821 7.7590454,4.86505128 7.66240234,4.86505128 C7.56575927,4.86505128 7.48740234,4.94340821 7.48740234,5.04005128 L7.48740234,5.44696045 L6.5279785,5.44696045 L6.5279785,5.04005128 C6.5279785,4.94340821 6.44962157,4.86505128 6.3529785,4.86505128 C6.25633544,4.86505128 6.1779785,4.94340821 6.1779785,5.04005128 L6.1779785,5.44696045 L5.48045654,5.44696045 L5.48045654,1.86954346 C5.48045654,1.03162841 6.16208497,0.35 7,0.35 C7.83791503,0.35 8.51954346,1.03162841 8.51954346,1.86954346 L8.51954346,5.44696045 L7.83740234,5.44696045 Z M13.65,2.33096924 C13.65,3.55126952 12.6571655,4.54410401 11.4368652,4.54410401 L8.86954346,4.54410401 L8.86954346,2.14152832 L9.42154542,2.14152832 L9.42154542,3.61783448 C9.42154542,3.71447755 9.49990235,3.79283448 9.59654542,3.79283448 L11.3959351,3.79283448 C12.2531616,3.79283448 12.9505982,3.09539795 12.9505982,2.23817139 L12.9505982,2.14152832 L13.65,2.14152832 L13.65,2.33096924 Z" id="Shape"></path>
                                    <path d="M7.91534398,1.57515531 L7.06478761,1.02004801 C7.02378463,0.99331733 6.97621535,0.99331733 6.93521237,1.02004801 L6.084656,1.57515531 C6.0269454,1.61287529 5.9933113,1.69633442 6.00111792,1.78266465 C6.00892453,1.86889588 6.05642086,1.93889067 6.11916563,1.95651313 C6.45674706,2.05125858 6.77521323,2.66675742 6.8694763,2.89594832 C6.89581451,2.96010196 6.94579145,3 6.99992705,3 C7.00000001,3 7.00007297,3 7.00014592,3 C7.05435448,2.99990099 7.10433141,2.96010198 7.13059667,2.89575031 C7.22434902,2.66675742 7.54179376,2.05165458 7.88083437,1.95651313 C7.94357914,1.93889067 7.99107547,1.86889588 7.99888209,1.78266465 C8.00668868,1.69633444 7.97305456,1.61287529 7.91534398,1.57515531 Z M6.99999998,2.42489419 C6.89063439,2.21827586 6.71866996,1.9396827 6.50562959,1.75038982 L6.99999998,1.42783952 L7.49437038,1.75038982 C7.28133,1.9396827 7.10936557,2.21827586 6.99999998,2.42489419 Z" id="Shape"></path>
                                </g>
                            </g>
                        </g>
                    </g>
                </g>
            </g>
        </g>
    </g>
</svg>