<?xml version="1.0" encoding="UTF-8"?>
<svg width="73px" height="73px" viewBox="0 0 73 73" version="1.1" xmlns="http://www.w3.org/2000/svg" xmlns:xlink="http://www.w3.org/1999/xlink">
    <!-- Generator: Sketch 52.6 (67491) - http://www.bohemiancoding.com/sketch -->
    <title>Group</title>
    <desc>Created with Sketch.</desc>
    <g id="Page-1" stroke="none" stroke-width="1" fill="none" fill-rule="evenodd">
        <g id="HOME_CD" transform="translate(-833.000000, -300.000000)" fill="#FFFFFF">
            <g id="First_Part">
                <g id="Triboo" transform="translate(336.000000, 278.000000)">
                    <g id="RETAIL" transform="translate(459.000000, 0.000000)">
                        <g id="LOGO" transform="translate(37.995000, 22.350000)">
                            <g id="Group">
                                <path d="M64.7252594,36.1340101 L71.6702315,29.2353405 C72.246156,28.6931482 72.4268382,27.8350345 72.1106443,27.1351073 C71.8057431,26.4236633 71.1168922,25.9721374 70.3489929,25.9721374 L55.4314187,25.9721374 C54.92325,25.9721374 54.426374,26.163971 54.0085464,26.6045446 C53.9746685,26.6381917 53.9407906,26.6724033 53.9069127,26.7173414 L48.102497,34.248644 L38.0181717,24.1655823 L45.5390683,18.3734277 C46.0246517,18.0232948 46.3069676,17.4701502 46.3069676,16.8603249 L46.3069676,1.92237207 C46.3069676,1.13200419 45.8326768,0.431851164 45.143826,0.172271772 C44.4323898,-0.132584408 43.5967346,0.0256020765 43.054688,0.567568619 L36.1210086,7.54527495 L29.2212071,0.601441528 C28.7017457,0.0481840158 28.0128948,-0.188926347 27.1094838,0.172271772 C26.4093403,0.477127952 25.9689275,1.15469904 25.9689275,1.89979013 L25.9689275,16.8603249 C25.9689275,17.3684185 26.1609023,17.8540431 26.5900225,18.2716961 C26.6239004,18.305569 26.6577783,18.3281509 26.7029489,18.3621368 L34.2464308,24.1655823 L24.1508128,34.248644 L18.3351045,26.7060504 C17.9737401,26.2319426 17.4316935,25.9722503 16.8444763,25.9722503 L1.90431691,25.9722503 C1.12512492,25.9722503 0.413688755,26.4463581 0.153958092,27.1239292 C-0.139650483,27.8240822 0.00715380464,28.6366933 0.549200405,29.2128715 L7.52805039,36.1454139 L0.560493043,43.0668912 C0.0184464422,43.6088578 -0.150943121,44.4104037 0.142665455,45.1442038 C0.447566668,45.8443569 1.14771019,46.3184647 1.90431691,46.3184647 L16.8444763,46.3184647 C17.3413524,46.3184647 17.8269358,46.1150014 18.1657149,45.7764981 C18.2108855,45.7313343 18.2108855,45.7313343 18.2447634,45.6747665 C18.2899339,45.6408936 18.3125192,45.6072465 18.3463971,45.5730349 L24.1508128,38.0307801 L34.2351381,48.113503 L26.6916563,53.9284653 C26.2173655,54.2898892 25.9576348,54.8431468 25.9576348,55.4189862 L25.9576348,70.356939 C25.9576348,71.147194 26.420633,71.8471212 27.1094838,72.1068135 C27.82092,72.4116697 28.6565752,72.253709 29.1986218,71.7117425 L36.1323012,64.7340362 L43.0321027,71.6778696 C43.3821745,72.0505845 43.8790506,72.265 44.3985119,72.265 C44.6469499,72.265 44.8840953,72.2198361 45.1325333,72.1183303 C45.8439695,71.8134741 46.3069676,71.1246121 46.3069676,70.3568261 L46.3069676,55.4188733 C46.3069676,54.9221835 46.1037001,54.436446 45.7536284,54.0863131 C45.7423357,54.0752479 45.7310431,54.0637311 45.7197505,54.052666 C45.6745799,54.0075021 45.6181167,53.9622253 45.5729462,53.9170614 L38.0181717,48.1133901 L48.102497,38.0306671 L53.9182053,45.572922 C54.2795697,46.0473685 54.8329089,46.3183518 55.4314187,46.3183518 L70.3489929,46.3183518 C71.1394775,46.3183518 71.839621,45.844244 72.0767664,45.2005458 C72.4155456,44.4891018 72.2687413,43.6312139 71.7041094,43.0666654 L64.7252594,36.1340101 Z M2.77385,44.0602708 L9.92208954,36.935556 C10.1366497,36.7324315 10.2608687,36.4388662 10.2608687,36.1451881 C10.2608687,35.8403319 10.1366497,35.5467667 9.92208954,35.3435293 L2.76255736,28.2301055 L8.58955832,28.2301055 L14.6875826,36.1450752 L8.58955832,44.0600449 L2.77385,44.0600449 L2.77385,44.0602708 Z M22.7392331,36.167883 L16.6637941,44.0602708 L11.435303,44.0602708 C16.7777369,37.0725155 16.7307595,37.2425575 16.8444763,36.9582509 C17.0789115,36.5667929 17.1371815,35.8136853 16.7202573,35.0840628 L16.7090776,35.0953538 C16.6412089,34.9595234 16.9683566,35.4162431 11.435303,28.2303313 L16.6639071,28.2303313 L22.739346,36.1114281 L22.739346,36.167883 L22.7392331,36.167883 Z M28.227455,2.8030677 L35.330524,9.93907342 C35.5337914,10.1534889 35.8274,10.2778025 36.1323012,10.2778025 C36.4259098,10.2778025 36.7195184,10.1534889 36.9340785,9.93907342 L44.0484401,2.78048576 L44.0484401,8.60685191 L36.1210086,14.7038626 L28.227455,8.61791706 L28.227455,2.8030677 Z M28.227455,16.6909604 L28.227455,11.4631285 C34.5238909,16.2265628 34.9851951,16.8189999 35.6015473,16.9732346 C35.6354252,16.9845256 35.6693031,16.9845256 35.7144736,16.9958165 C36.2299825,17.123969 36.6836078,16.9841868 37.1825165,16.7361242 L37.1825165,16.7248333 C37.3746043,16.5965678 36.4918588,17.259009 44.0484401,11.4520633 L44.0484401,16.6796694 L36.1548865,22.7540981 L36.0984233,22.7540981 L28.227455,16.6909604 Z M44.0484401,69.4876473 L36.9227858,62.3403506 C36.7195184,62.1259351 36.4259098,62.0016215 36.1323012,62.0016215 C35.8274,62.0016215 35.5337914,62.1259351 35.330524,62.3403506 L28.2161623,69.5102292 L28.2161623,63.6729108 L36.1321883,57.5869653 L44.0483272,63.661394 L44.0483272,69.4876473 L44.0484401,69.4876473 Z M44.0484401,55.5883508 L44.0484401,60.8159568 C36.9666013,55.4140182 37.0978217,55.3861295 36.6178846,55.3060765 C36.2473732,55.1209046 35.477667,55.2918499 35.2514755,55.4527462 C35.1950123,55.4753281 35.1498418,55.5092011 35.0820859,55.5544778 C34.9471389,55.6219978 35.3590943,55.3291101 28.2161623,60.8275865 L28.2161623,55.5997546 L36.0984233,49.5251001 C36.1097159,49.5251001 36.1210086,49.5367298 36.1323012,49.5367298 C36.1323012,49.5367298 36.1435939,49.5251001 36.1548865,49.5251001 L44.0484401,55.5883508 Z M36.1323012,46.8152673 L25.4608717,36.145301 L36.1323012,25.4753347 L46.8038437,36.145301 L36.1323012,46.8152673 Z M55.5895157,44.0602708 L49.5253693,36.167883 C49.5253693,36.156592 49.5253693,36.145301 49.5253693,36.145301 L49.5253693,36.1114281 L55.5895157,28.2303313 L60.8180068,28.2303313 C55.3514669,35.3518846 55.3808277,35.1777778 55.2959071,35.6599023 C55.2846144,35.6709674 55.2846144,35.6824842 55.2846144,35.7050661 C55.1203066,36.2635175 55.3167985,36.7114303 55.4427114,37.0259967 C55.529213,37.1391322 61.1721439,44.5236521 60.8180068,44.0602708 L55.5895157,44.0602708 Z M63.6637515,44.0602708 L57.5770199,36.1340101 L63.6637515,28.2303313 L69.4794598,28.2303313 L62.3312203,35.3437551 C62.1166601,35.5468796 61.9924411,35.8404449 61.9924411,36.1454139 C61.9924411,36.4389792 62.1166601,36.7325444 62.3312203,36.9470728 L69.5020451,44.0603837 L63.6637515,44.0603837 L63.6637515,44.0602708 Z" id="Shape" fill-rule="nonzero"></path>
                                <path d="M35.0304419,33.1365774 L35.0304419,35.7757573 L32.3915623,35.7757573 C31.7827172,35.7757573 31.29,36.2685306 31.29,36.8774449 C31.29,37.4863593 31.7827172,37.9791325 32.3915623,37.9791325 L35.0304419,37.9791325 L35.0304419,40.6183124 C35.0304419,41.2272267 35.5231591,41.72 36.1320042,41.72 C36.7408493,41.72 37.2335665,41.2272267 37.2335665,40.6183124 L37.2335665,37.9792427 L39.8734377,37.9792427 C40.4822828,37.9792427 40.975,37.4864695 40.975,36.8775551 C40.975,36.2686407 40.4822828,35.7758675 39.8734377,35.7758675 L37.2335665,35.7758675 L37.2335665,33.1366876 C37.2335665,32.5277733 36.7408493,32.035 36.1320042,32.035 C35.5231591,32.0348898 35.0304419,32.5276631 35.0304419,33.1365774 Z" id="Path"></path>
                            </g>
                        </g>
                    </g>
                </g>
            </g>
        </g>
    </g>
</svg>