<?xml version="1.0" encoding="UTF-8"?>
<svg width="35px" height="73px" viewBox="0 0 35 73" version="1.1" xmlns="http://www.w3.org/2000/svg" xmlns:xlink="http://www.w3.org/1999/xlink">
    <!-- Generator: Sketch 52.6 (67491) - http://www.bohemiancoding.com/sketch -->
    <title>Group</title>
    <desc>Created with Sketch.</desc>
    <g id="Page-1" stroke="none" stroke-width="1" fill="none" fill-rule="evenodd">
        <g id="HOME_CD" transform="translate(-546.000000, -300.000000)" fill="#FFFFFF">
            <g id="First_Part">
                <g id="Triboo" transform="translate(336.000000, 278.000000)">
                    <g id="TECH/IT" transform="translate(153.000000, 0.000000)">
                        <g id="LOGO" transform="translate(56.620000, 22.350000)">
                            <g id="Group">
                                <path d="M27.5957685,40.453652 L17.880894,55.7151083 L8.16613125,40.453652 C7.36421325,39.190467 5.44099575,40.4031515 6.250401,41.6729284 L16.9230847,58.4384531 C17.369079,59.1380873 18.392709,59.1381991 18.838815,58.4384531 L29.5114987,41.6729284 C30.320457,40.4039335 28.3998097,39.1909139 27.5957685,40.453652 Z" id="Path"></path>
                                <path d="M29.7864037,27.2760153 C29.2296652,27.5459477 30.0189555,26.7160398 17.8810057,45.6641507 C5.3986425,26.0526051 6.431436,27.4970113 5.975496,27.2760153 C5.28901575,26.8412857 4.34495175,27.4785763 4.34808075,28.2580953 C4.32595425,28.8119259 3.5087265,27.31255 16.9230847,48.3876072 C17.1314985,48.714632 17.492898,48.9129474 17.880894,48.9129474 C18.26889,48.9129474 18.6302895,48.7145203 18.8387032,48.3876072 C31.165734,29.020967 31.4405272,28.9274516 31.4137072,28.2580953 C31.416948,27.4780177 30.470202,26.8405036 29.7864037,27.2760153 Z" id="Path"></path>
                                <path d="M33.411015,0.760078533 L23.5118647,11.7469729 L18.8346802,4.40360654 C18.286323,3.63503676 17.3975752,3.74564645 16.9275547,4.40360654 L12.250482,11.7469729 L2.35122,0.760078533 C1.35441,-0.344119048 -0.33078,1.1535809 0.659772,2.28101769 L10.9902772,13.7331432 L6.50619675,20.7700425 C6.29051925,21.1332669 6.27912075,21.5758174 6.4835115,21.9391535 C6.4835115,21.961834 6.49479825,21.9732302 6.50619675,21.9846263 L16.7913315,38.1469372 L16.8481005,38.2264868 L16.8707857,38.26034 C16.8707857,38.2719596 16.8821842,38.2830206 16.8821842,38.2830206 C17.0864632,38.646245 17.461161,38.8732741 17.8812292,38.8732741 L17.9947672,38.8732741 C18.4375207,38.8394209 18.8122185,38.5441265 18.9597285,38.1470489 L29.25615,21.9846263 C29.2674367,21.9732302 29.2788352,21.9619458 29.2788352,21.9391535 C29.4891487,21.5890012 29.4686985,21.0898051 29.25615,20.7700425 L24.7719577,13.7331432 L35.0910645,2.28101769 C36.1000552,1.1635246 34.4120715,-0.34881158 33.411015,0.760078533 Z M26.9515297,21.3716922 L17.8811175,35.6271589 L8.81070525,21.3715805 L12.5569005,15.4809998 L17.0410927,20.4521793 C17.2567702,20.6904929 17.5633005,20.8267998 17.8811175,20.8267998 C18.1989345,20.8267998 18.5054647,20.6904929 18.7211422,20.4521793 L23.193936,15.4809998 L23.2053345,15.4809998 L26.9515297,21.3716922 Z" id="Shape" fill-rule="nonzero"></path>
                                <polygon id="Rectangle" transform="translate(17.879511, 67.188299) rotate(-135.000000) translate(-17.879511, -67.188299) " points="14.5944557 63.8988913 21.2046011 63.8589081 21.1645669 70.4777074 14.5544215 70.5176906"></polygon>
                            </g>
                        </g>
                    </g>
                </g>
            </g>
        </g>
    </g>
</svg>