<?xml version="1.0" encoding="UTF-8"?>
<svg width="10px" height="17px" viewBox="0 0 10 17" version="1.1" xmlns="http://www.w3.org/2000/svg" xmlns:xlink="http://www.w3.org/1999/xlink">
    <!-- Generator: Sketch 52.6 (67491) - http://www.bohemiancoding.com/sketch -->
    <title>Employ_NB_Logo</title>
    <desc>Created with Sketch.</desc>
    <g id="Page-1" stroke="none" stroke-width="1" fill="none" fill-rule="evenodd">
        <g id="DB_COMPANIES_R" transform="translate(-416.000000, -251.000000)" fill="#404660">
            <g id="COMPANIES_LIST" transform="translate(280.000000, 113.000000)">
                <g id="Data">
                    <g id="NotOpenBoxCompany" transform="translate(0.000000, 50.000000)">
                        <g id="Details" transform="translate(134.000000, 49.000000)">
                            <g id="CompanyScale" transform="translate(2.000000, 39.000000)">
                                <g id="Employ_NB_Logo">
                                    <g id="Group">
                                        <path d="M8.63926829,11.1588935 C8.65591463,11.4062405 8.8704878,11.5962784 9.12567073,11.5962784 C9.13621951,11.5962784 9.14682927,11.5959278 9.15743902,11.5952852 C9.42634146,11.5785773 9.6302439,11.3562921 9.61292683,11.0987801 C9.60780488,11.0230687 9.6020122,10.9488763 9.59579268,10.875268 C9.34536585,10.8222818 8.89884146,10.7517698 8.60030488,10.7064364 C8.61560976,10.8520172 8.62878049,11.002622 8.63926829,11.1588935 Z" id="Path"></path>
                                        <path d="M1.13810976,7.64935739 C1.01231707,7.64433333 0.884329268,7.63282474 0.75402439,7.61342955 L0.75402439,2.84793814 C0.958414634,2.74278351 1.10463415,2.43503093 1.10463415,1.81099656 C1.10463415,1.0124055 0.571097561,0 0.571097561,0 C0.571097561,0 0.0375609756,1.0124055 0.0375609756,1.81099656 C0.0375609756,2.43503093 0.183780488,2.74278351 0.388170732,2.84793814 L0.388170732,7.58492096 C0.203719512,7.62190034 0.0504878049,7.75994502 0.0101219512,7.94805498 C-0.0442073171,8.2003677 0.125,8.447189 0.388170732,8.49976632 L0.388170732,17 L0.75402439,17 L0.75402439,8.55573196 C0.816768293,8.56297595 0.879146341,8.56893471 0.941158537,8.57354983 C0.937865854,8.53954983 0.935670732,8.5045567 0.935304878,8.46775258 C0.932987805,8.23506873 1.00109756,7.84208247 1.13810976,7.64935739 Z" id="Path"></path>
                                        <path d="M3.96170732,16.0956701 L3.9527439,16.2160722 C3.9229878,16.6140825 4.23560976,16.9596323 4.65073171,16.9880825 C5.06603659,17.0165911 5.42689024,16.7173093 5.45664634,16.3193574 L5.45865854,16.2920756 C5.07536585,16.3277113 4.25359756,16.2817938 3.96170732,16.0956701 Z" id="Path"></path>
                                        <path d="M3.84926829,15.7119725 C3.85042683,15.7845876 3.85396341,15.8359966 3.86042683,15.8608832 C3.95280488,16.2160722 5.6020122,16.2406082 5.65920732,16.1237698 C5.68914634,16.0625464 5.8375,14.3909381 5.9395122,12.9133986 C5.32902439,12.2738832 4.88634146,11.5929485 4.57567073,11.0065945 C4.44073171,10.7518282 4.32469512,10.5051237 4.225,10.2723814 C4.20871951,10.4632955 4.18719512,10.718646 4.16262195,11.0150653 L4.01609756,11.0279759 C3.96579268,11.0324158 3.92871951,11.0751203 3.93341463,11.1232577 C3.93804878,11.1713952 3.98262195,11.2069725 4.03286585,11.2024742 L4.14804878,11.1923093 C4.14213415,11.2641065 4.13609756,11.3378316 4.12993902,11.4132509 L3.9847561,11.4260447 C3.9345122,11.4304845 3.89743902,11.473189 3.90213415,11.5213265 C3.90670732,11.5694639 3.95134146,11.6049828 4.00158537,11.6006014 L4.11554878,11.5905533 C4.10969512,11.6630515 4.10371951,11.7366598 4.09768293,11.8114364 L3.95347561,11.8241718 C3.90317073,11.8285533 3.86609756,11.8713162 3.87073171,11.9194536 C3.87530488,11.9675911 3.91993902,12.00311 3.97018293,11.9986117 L4.08347561,11.988622 C4.07768293,12.0615876 4.07182927,12.1351375 4.06597561,12.2094467 L3.92207317,12.2221237 C3.87176829,12.2265636 3.83469512,12.269268 3.83939024,12.3174639 C3.84402439,12.3656014 3.88859756,12.4011203 3.93884146,12.3966804 L4.05213415,12.3866907 C4.04640244,12.4600069 4.04067073,12.5336151 4.03493902,12.6075155 L3.89073171,12.6201924 C3.8404878,12.6246323 3.80341463,12.6673368 3.80810976,12.7154742 C3.81268293,12.7636117 3.85731707,12.7991306 3.90756098,12.7946323 L4.02140244,12.7846426 C4.01579268,12.8582509 4.01018293,12.9318591 4.00463415,13.0054674 L3.85945122,13.0182612 C3.80914634,13.0226426 3.77207317,13.0654055 3.77676829,13.113543 C3.78134146,13.1616804 3.82597561,13.1971993 3.87621951,13.192701 L3.99146341,13.1825361 C3.98597561,13.2564948 3.98054878,13.3300447 3.9752439,13.4033024 L3.82810976,13.4162715 C3.77786585,13.4207113 3.74073171,13.4634158 3.74542683,13.5115533 C3.75006098,13.5597491 3.79463415,13.595268 3.84487805,13.5907698 L3.96243902,13.5804296 C3.95713415,13.6546804 3.95189024,13.7282302 3.94682927,13.8010206 L3.79676829,13.8142818 C3.74652439,13.8187216 3.70945122,13.8614261 3.71408537,13.9095636 C3.71865854,13.9577595 3.76329268,13.9932784 3.81353659,13.9887801 L3.93457317,13.9780893 C3.92945122,14.0526907 3.92445122,14.1264158 3.91969512,14.1986804 L3.76542683,14.2122337 C3.71518293,14.2166735 3.67804878,14.259378 3.6827439,14.3075739 C3.68737805,14.3557113 3.73195122,14.3912302 3.78219512,14.386732 L3.90823171,14.3756907 C3.90341463,14.4509931 3.89884146,14.5246014 3.8945122,14.5961649 L3.73408537,14.6103024 C3.68384146,14.6147423 3.64676829,14.6574467 3.65140244,14.7055258 C3.65603659,14.7537801 3.70060976,14.789299 3.75085366,14.7848007 L3.88414634,14.7730584 C3.87981707,14.8494708 3.87573171,14.9230206 3.87213415,14.9934742 L3.70280488,15.0083711 C3.65256098,15.0127526 3.6154878,15.0555155 3.62018293,15.1036529 C3.62481707,15.1517904 3.66939024,15.1873093 3.71963415,15.1829278 L3.86353659,15.1702509 C3.85993902,15.2492337 3.8570122,15.3224914 3.85469512,15.3903162 L3.67146341,15.4064399 C3.62121951,15.4108797 3.58414634,15.4535842 3.58878049,15.5017216 C3.59341463,15.5498591 3.6379878,15.585378 3.68823171,15.5809966 L3.85006098,15.5667423 C3.84865854,15.6221821 3.84859756,15.670378 3.84926829,15.7119725 Z" id="Path"></path>
                                        <path d="M6.68292683,16.2920172 L6.68493902,16.319299 C6.71469512,16.7173093 7.07554878,17.0165911 7.49085366,16.9880241 C7.90603659,16.9596323 8.21865854,16.6140241 8.18884146,16.2160137 L8.17987805,16.0956117 C7.88804878,16.2817938 7.06628049,16.3277113 6.68292683,16.2920172 Z" id="Path"></path>
                                        <path d="M8.24743902,14.5963402 C8.24634146,14.578055 8.2452439,14.5598282 8.24408537,14.5412509 C7.43695122,14.1861203 6.76969512,13.7116976 6.22195122,13.194512 C6.32237805,14.5951718 6.45439024,16.0663436 6.48243902,16.1237698 C6.53963415,16.2406082 8.18884146,16.2160722 8.28121951,15.8608832 C8.28768293,15.8359966 8.29121951,15.7845876 8.29237805,15.7119725 C8.29304878,15.670378 8.29292683,15.6222405 8.2920122,15.5669175 L8.45384146,15.5811718 C8.50408537,15.5855533 8.54865854,15.5500928 8.55329268,15.5018969 C8.55786585,15.4537595 8.52085366,15.411055 8.47060976,15.4066151 L8.28737805,15.3904914 C8.28506098,15.3227251 8.28219512,15.2494089 8.27853659,15.1704261 L8.42243902,15.1831031 C8.47268293,15.1874845 8.5172561,15.1520241 8.52189024,15.1038282 C8.52652439,15.0556907 8.4895122,15.0129278 8.43926829,15.0085464 L8.26993902,14.9936495 C8.26628049,14.9231959 8.2622561,14.8495876 8.25792683,14.7732337 L8.39121951,14.7849759 C8.44146341,14.7894158 8.48603659,14.7539553 8.49067073,14.705701 C8.49341463,14.6766667 8.48085366,14.6497354 8.4595122,14.6318591 C8.44189024,14.6247904 8.42445122,14.6175464 8.40695122,14.6103608 L8.24743902,14.5963402 Z" id="Path"></path>
                                        <path d="M1.60341463,9.52701031 C1.61195122,9.57473883 1.65920732,9.606811 1.70896341,9.59869072 C1.75871951,9.59057045 1.79219512,9.54529553 1.78371951,9.49762543 L1.71012195,9.08448454 C1.64420732,9.09114433 1.58280488,9.09558419 1.52689024,9.09757045 L1.60341463,9.52701031 Z" id="Path"></path>
                                        <path d="M1.99707317,9.46269072 C2.00560976,9.51036082 2.05286585,9.54243299 2.10262195,9.53437113 C2.15237805,9.52625086 2.18591463,9.48097595 2.17743902,9.43330584 L2.1054878,9.02951203 C2.04378049,9.03991065 1.98329268,9.04943299 1.92493902,9.05784536 L1.99707317,9.46269072 Z" id="Path"></path>
                                        <path d="M2.39085366,9.39831271 C2.39939024,9.44598282 2.44664634,9.47805498 2.49640244,9.46999313 C2.54609756,9.46175601 2.57963415,9.41659794 2.57115854,9.36886942 L2.49768293,8.95631271 C2.43768293,8.96846392 2.3777439,8.98020619 2.31835366,8.9914811 L2.39085366,9.39831271 Z" id="Path"></path>
                                        <path d="M2.7845122,9.33399313 C2.79304878,9.38166323 2.84030488,9.4137354 2.89006098,9.40567354 C2.93981707,9.39743643 2.97329268,9.35221993 2.96481707,9.30449141 L2.88792683,8.87271478 C2.82932927,8.88585911 2.76963415,8.89906186 2.70939024,8.91208935 L2.7845122,9.33399313 Z" id="Path"></path>
                                        <path d="M3.17823171,9.2695567 C3.18670732,9.31728522 3.23396341,9.34935739 3.28371951,9.34117869 C3.33347561,9.33305842 3.3670122,9.28778351 3.35853659,9.2401134 L3.27689024,8.78169759 C3.22012195,8.79542612 3.16067073,8.80968041 3.09884146,8.8242268 L3.17823171,9.2695567 Z" id="Path"></path>
                                        <path d="M3.57189024,9.20517869 C3.58042683,9.25296564 3.62768293,9.2850378 3.67743902,9.27685911 C3.72719512,9.26873883 3.76067073,9.22346392 3.75219512,9.17579381 L3.6647561,8.68478007 C3.6147561,8.69769072 3.5547561,8.71299656 3.48719512,8.72987973 L3.57189024,9.20517869 Z" id="Path"></path>
                                        <path d="M4.48664634,7.00347423 C4.77,7.4802921 5.14823171,8.05309278 5.50207317,8.41943986 C5.73469512,8.66795533 5.96609756,8.8011512 6.07073171,8.79197938 C6.14865854,8.79589347 6.29987805,8.72929553 6.46707317,8.583189 C6.635,8.4398866 6.81878049,8.23062887 6.9970122,7.99549141 C7.35469512,7.5246323 7.69317073,6.95037113 7.90487805,6.5683677 C7.94018293,6.50469072 7.97195122,6.44644674 7.9997561,6.39492096 C7.91646341,6.36185567 7.82890244,6.33217869 7.7377439,6.30559794 C7.49006098,6.80467354 7.14292683,7.43063574 6.78158537,7.84541237 C6.55195122,8.10631271 6.31762195,8.29243643 6.07073171,8.29547423 C5.82402439,8.29243643 5.5895122,8.10631271 5.36,7.84541237 C5.13097561,7.58299313 4.90920732,7.23720962 4.71384146,6.89195189 C4.59243902,6.67737801 4.48140244,6.4630378 4.38603659,6.26949485 C4.29695122,6.29852921 4.21493902,6.33755326 4.13573171,6.38364605 C4.1377439,6.38738488 4.1395122,6.3907732 4.14158537,6.39462887 C4.2252439,6.54973196 4.34445122,6.76483162 4.48664634,7.00347423 Z" id="Path"></path>
                                        <path d="M7.61865854,6.27317526 C7.32609756,6.19851546 7.00317073,6.15265636 6.67439024,6.12852921 C6.63408537,6.33282131 6.37963415,6.645189 6.07085366,6.645189 C5.76042683,6.645189 5.50481707,6.32949141 5.46658537,6.12525773 C5.10664634,6.14716495 4.7827439,6.18653952 4.53713415,6.23134708 C4.52634146,6.23327491 4.51615854,6.2359622 4.50554878,6.23818213 C4.52121951,6.26990378 4.5372561,6.30203436 4.55378049,6.33469072 C4.79591463,6.81513058 5.12292683,7.39202062 5.45353659,7.77057732 C5.67329268,8.02452577 5.89628049,8.1815567 6.07079268,8.1785189 C6.33481707,8.18681443 6.69829268,7.81760481 7.01463415,7.33669759 C7.24134146,6.99739863 7.45176829,6.60820962 7.61865854,6.27317526 Z" id="Path"></path>
                                        <path d="M8.56146341,14.5463918 C8.56146341,14.5463918 8.01268293,11.3138213 7.9720122,8.93814433 L8.40902439,10.5738832 C8.40902439,10.5738832 9.17115854,10.5738832 9.80128049,10.8075601 C10.4,11.0296117 9.26908537,7.34873196 8.31792683,6.56813402 C8.05926829,7.04816495 7.48518293,8.05578007 6.90829268,8.65714777 C6.64469512,8.9234811 6.3875,9.13349828 6.07073171,9.1426701 C5.75408537,9.1335567 5.49689024,8.9234811 5.23329268,8.65714777 C4.9725,8.38625773 4.71670732,8.03632646 4.48756098,7.68779725 C4.21439024,7.27185223 3.98060976,6.85824399 3.83615854,6.5917354 C3.37060976,6.95224055 2.81628049,7.46516151 1.31042683,7.65292096 C1.13018293,7.67541237 0.817560976,8.9186323 1.36634146,8.97705155 C1.91512195,9.03547079 3.79518293,8.52920962 3.79518293,8.52920962 C3.79518293,8.52920962 4.5777439,12.9885258 8.56146341,14.5463918 Z" id="Path"></path>
                                        <path d="M7.25829268,5.6409622 C7.45493902,5.77503436 7.60603659,5.82708591 7.69018293,5.82603436 C7.73542683,5.82568385 7.75756098,5.814 7.77097561,5.79957045 C7.78012195,5.78876289 7.78414634,5.77929897 7.78457317,5.76282474 C7.7877439,5.72759794 7.75085366,5.65726117 7.65987805,5.56939863 C7.63256098,5.56034364 7.60469512,5.55070447 7.57554878,5.53966323 C7.45176829,5.49228522 7.32786585,5.43374914 7.21859756,5.37182474 C7.17652439,5.4202543 7.13103659,5.46587973 7.0827439,5.50864261 C7.13920732,5.55502749 7.19841463,5.60030241 7.25829268,5.6409622 Z" id="Path"></path>
                                        <path d="M7.92085366,5.23103436 C7.89018293,5.22980756 7.85853659,5.22805498 7.82518293,5.22525086 C7.67237805,5.21169759 7.51518293,5.18453265 7.37847561,5.14802062 C7.3525,5.19300344 7.32390244,5.23640893 7.29317073,5.27823711 C7.39378049,5.33449485 7.50810976,5.38853265 7.62042683,5.43112027 C7.78792683,5.49473883 7.91920732,5.52067698 8.00920732,5.52050172 C8.10591463,5.51991753 8.14542683,5.49286942 8.15768293,5.46856701 C8.16189024,5.46044674 8.16365854,5.45331959 8.16365854,5.44473196 C8.17085366,5.40938832 8.10353659,5.32082474 7.92085366,5.23103436 Z" id="Path"></path>
                                        <path d="M8.11030488,4.87198969 C7.90018293,4.93204467 7.66780488,4.96838144 7.49304878,4.9685567 C7.48371951,4.9685567 7.47493902,4.96814777 7.46597561,4.96791409 C7.45597561,4.99280069 7.44530488,5.01727835 7.43402439,5.0414055 C7.55756098,5.07283505 7.70030488,5.09742955 7.83597561,5.10887973 C7.89292683,5.11361168 7.94512195,5.11583162 7.99280488,5.11583162 C8.12323171,5.11594845 8.21871951,5.09859794 8.27817073,5.07371134 C8.33865854,5.04806529 8.35762195,5.02078351 8.3620122,4.99823368 C8.36268293,4.9946701 8.36304878,4.99134021 8.36304878,4.98801031 C8.36341463,4.9667457 8.34737805,4.93362199 8.27262195,4.89658419 C8.24317073,4.88221306 8.20530488,4.86865979 8.15981707,4.85656701 C8.14359756,4.86176632 8.12731707,4.86690722 8.11030488,4.87198969 Z" id="Path"></path>
                                        <path d="M8.30323171,4.40872509 C8.05390244,4.54694502 7.77121951,4.65414433 7.59939024,4.656189 C7.58396341,4.65607216 7.56804878,4.6549622 7.55231707,4.65250859 C7.55170732,4.65285911 7.55103659,4.6531512 7.55036585,4.65350172 C7.54060976,4.72109278 7.52591463,4.78716495 7.50664634,4.85142612 C7.66335366,4.8498488 7.8820122,4.81573196 8.07536585,4.76011684 C8.41018293,4.66717182 8.53213415,4.53496907 8.52243902,4.48233333 C8.52243902,4.47847766 8.52207317,4.47409622 8.52128049,4.47035739 C8.51713415,4.45341581 8.51012195,4.44249141 8.48573171,4.42905498 C8.46146341,4.41620275 8.41835366,4.40592096 8.35652439,4.40615464 C8.3402439,4.40609622 8.32189024,4.40732302 8.30323171,4.40872509 Z" id="Path"></path>
                                        <path d="M8.29207317,4.00148454 C8.14152439,4.12539175 7.9704878,4.24135395 7.81457317,4.32723024 C7.7520122,4.3611134 7.6929878,4.39043986 7.6377439,4.41380756 C7.59628049,4.46229553 7.57012195,4.5034811 7.56304878,4.52457045 C7.56286585,4.52801718 7.5627439,4.5314055 7.56256098,4.53485223 C7.56865854,4.53695533 7.58128049,4.53935052 7.59945122,4.53917526 C7.72731707,4.54139519 8.03420732,4.43086598 8.27365854,4.29042612 C8.54213415,4.13754296 8.64182927,3.99324742 8.63640244,3.93225773 C8.63640244,3.92051546 8.63402439,3.91140206 8.62981707,3.90304811 C8.61853659,3.88318557 8.60268293,3.86916495 8.545,3.86758763 C8.5125,3.86723711 8.46896341,3.87483162 8.41664634,3.89101375 C8.37878049,3.92688316 8.33756098,3.96351203 8.29207317,4.00148454 Z" id="Path"></path>
                                        <path d="M8.3320122,3.37955326 C8.28243902,3.44632646 8.22402439,3.51707216 8.15457317,3.59284192 C8.00103659,3.75892784 7.82176829,3.91887973 7.65792683,4.03904811 C7.59554878,4.08373883 7.53689024,4.12323024 7.48182927,4.15553608 C7.47439024,4.16669416 7.46731707,4.17767698 7.46073171,4.18830928 C7.49676829,4.23037113 7.52408537,4.27593814 7.54170732,4.32512715 C7.60286585,4.302811 7.67658537,4.26916151 7.75371951,4.22604811 C7.90213415,4.14437801 8.06823171,4.03180412 8.21243902,3.9130378 C8.48628049,3.68952577 8.5927439,3.50486254 8.58920732,3.41618213 C8.58908537,3.39223024 8.58329268,3.37587285 8.57402439,3.36243643 C8.55896341,3.3429244 8.54243902,3.33240893 8.49987805,3.33135739 C8.46115854,3.33030584 8.40359756,3.34590378 8.3320122,3.37955326 Z" id="Path"></path>
                                        <path d="M8.04012195,2.9613299 C8.00585366,3.02366323 7.96731707,3.08903436 7.92243902,3.1586701 C7.72932927,3.45579038 7.48176829,3.74975601 7.27969512,3.91858763 C7.26231707,3.95585911 7.24853659,3.98968385 7.23871951,4.01930241 C7.28,4.0411512 7.31792683,4.06475258 7.35243902,4.08998969 C7.41762195,4.05861856 7.49939024,4.00954639 7.58384146,3.94616151 C7.74036585,3.83165979 7.91536585,3.67550515 8.06329268,3.51549485 C8.31262195,3.24723368 8.41128049,3.03908591 8.40914634,2.93083505 C8.40890244,2.89128522 8.39841463,2.86745017 8.38317073,2.85074227 C8.36713415,2.83432646 8.35085366,2.82632302 8.31914634,2.82573883 C8.26371951,2.8232268 8.16615854,2.86376976 8.04012195,2.9613299 Z" id="Path"></path>
                                        <path d="M7.54920732,2.70960137 C7.40664634,3.07431271 7.20591463,3.44913058 7.02664634,3.68105498 C7.00121951,3.76576289 6.98707317,3.8374433 6.98780488,3.88780069 C6.9877439,3.89977663 6.98865854,3.90953265 6.99,3.91800344 C7.00768293,3.92355326 7.02512195,3.92927835 7.0422561,3.93517869 C7.06652439,3.925189 7.09878049,3.90778007 7.13408537,3.88178351 C7.19676829,3.83703436 7.27128049,3.7706701 7.34963415,3.69028522 C7.50646341,3.52945704 7.67908537,3.31260481 7.81878049,3.0970378 C8.01841463,2.78969416 8.09932927,2.55899656 8.09835366,2.42556701 C8.09786585,2.35301031 8.07713415,2.31492096 8.05091463,2.295 C8.03542683,2.28354983 8.0202439,2.27823368 7.99817073,2.27805842 C7.92506098,2.27215808 7.77134146,2.36919244 7.58646341,2.60970447 C7.57469512,2.64224399 7.56256098,2.67530928 7.54920732,2.70960137 Z" id="Path"></path>
                                        <path d="M7.11085366,2.12178694 C7.10109756,2.18850172 7.08920732,2.25854639 7.07439024,2.33279725 C6.99036585,2.75049485 6.84615854,3.19196907 6.69884146,3.47430928 C6.69317073,3.52852234 6.68993902,3.57858763 6.69,3.62234364 C6.68987805,3.67953608 6.69530488,3.72615464 6.70439024,3.75635739 C6.71335366,3.78778694 6.72408537,3.79543986 6.72445122,3.79514777 C6.72445122,3.79514777 6.72445122,3.79514777 6.7245122,3.79514777 C6.72463415,3.79514777 6.72481707,3.79532302 6.72597561,3.79532302 C6.73341463,3.79871134 6.78664634,3.77364948 6.84408537,3.71137457 C6.9027439,3.65085223 6.97097561,3.56065292 7.04060976,3.45246048 C7.18012195,3.23601718 7.32658537,2.94730928 7.43506098,2.6687079 C7.55262195,2.36650515 7.60195122,2.13493127 7.60170732,1.97865979 C7.60158537,1.82828866 7.55719512,1.75923711 7.51213415,1.74065979 C7.49963415,1.73499313 7.48780488,1.73230584 7.47426829,1.73230584 C7.42896341,1.73049485 7.34884146,1.77173883 7.25780488,1.88834364 C7.21097561,1.94769759 7.16146341,2.02545361 7.11085366,2.12178694 Z" id="Path"></path>
                                        <path d="M6.51176829,1.77956701 C6.52231707,1.88320275 6.52817073,1.99764605 6.52823171,2.12459107 C6.52719512,2.6040378 6.45036585,3.1282921 6.32743902,3.43879038 C6.33969512,3.52881443 6.35768293,3.5976323 6.37945122,3.63320962 C6.39292683,3.6565189 6.40262195,3.66008247 6.4027439,3.65979038 L6.40365854,3.65990722 C6.40493902,3.66031615 6.41792683,3.6577457 6.43786585,3.64109622 C6.45756098,3.62503093 6.48213415,3.59734021 6.5079878,3.56047766 C6.55981707,3.48675258 6.61695122,3.37686598 6.67243902,3.24606529 C6.78353659,2.98417182 6.88939024,2.63745361 6.95457317,2.31071478 C6.99969512,2.08451546 7.0195122,1.89687285 7.0195122,1.74743643 C7.0197561,1.60039519 6.99981707,1.49045017 6.96920732,1.41952921 C6.93780488,1.34767354 6.90146341,1.31922337 6.86518293,1.31069416 C6.85737805,1.30888316 6.84993902,1.30800687 6.8425,1.30800687 C6.79329268,1.30584536 6.71310976,1.35456701 6.63176829,1.49798625 C6.59054878,1.56995876 6.54993902,1.66378007 6.51176829,1.77956701 Z" id="Path"></path>
                                        <path d="M4.48054878,5.56986598 C4.3897561,5.65761168 4.35371951,5.72753952 4.3570122,5.76264948 C4.3572561,5.77918213 4.36134146,5.78864605 4.37054878,5.79933677 C4.38396341,5.814 4.40603659,5.82568385 4.45140244,5.8261512 C4.5354878,5.82714433 4.68676829,5.77503436 4.88323171,5.6409622 C4.94317073,5.60024399 5.00237805,5.55496907 5.05878049,5.50858419 C5.0104878,5.46593814 4.96506098,5.42019588 4.92292683,5.37182474 C4.81359756,5.4339244 4.68945122,5.492811 4.56603659,5.53978007 C4.53652439,5.55099656 4.50823171,5.56075258 4.48054878,5.56986598 Z" id="Path"></path>
                                        <path d="M4.52115854,5.43112027 C4.6329878,5.38987629 4.74762195,5.3349622 4.84835366,5.27812027 C4.81762195,5.23623368 4.78902439,5.19282818 4.7629878,5.14784536 C4.62628049,5.18441581 4.46865854,5.21234021 4.31628049,5.2253677 C4.2829878,5.2281134 4.25128049,5.2299244 4.22060976,5.2311512 C4.0379878,5.32088316 3.97060976,5.40944674 3.97780488,5.44479038 C3.97792683,5.45314433 3.97969512,5.4603299 3.98402439,5.46850859 C3.99615854,5.492811 4.03554878,5.51997595 4.13243902,5.52056014 C4.22237805,5.52067698 4.35353659,5.49473883 4.52115854,5.43112027 Z" id="Path"></path>
                                        <path d="M4.70762195,5.04128866 C4.69634146,5.01721993 4.68567073,4.99280069 4.67573171,4.96797251 C4.66670732,4.96820619 4.65786585,4.96861512 4.64847561,4.96861512 C4.47365854,4.96849828 4.24128049,4.93198625 4.03128049,4.87193127 C4.01432927,4.8668488 3.99804878,4.8617079 3.98189024,4.85656701 C3.93621951,4.86860137 3.89829268,4.88215464 3.86871951,4.89652577 C3.79396341,4.93362199 3.77804878,4.96680412 3.77841463,4.98812715 C3.77841463,4.99104811 3.77878049,4.99426117 3.77945122,4.99805842 C3.78384146,5.02084192 3.80286585,5.04794845 3.86329268,5.07365292 C3.92262195,5.09853952 4.01823171,5.11600687 4.14865854,5.11589003 C4.19634146,5.11589003 4.24871951,5.1136701 4.30567073,5.10899656 C4.44146341,5.09737113 4.58402439,5.07277663 4.70762195,5.04128866 Z" id="Path"></path>
                                        <path d="M4.06628049,4.76 C4.25939024,4.81567354 4.47823171,4.84979038 4.63506098,4.8513677 C4.61585366,4.78722337 4.60109756,4.72126804 4.59140244,4.65385223 C4.59060976,4.65338488 4.5897561,4.65297595 4.58896341,4.65256701 C4.57335366,4.6549622 4.55756098,4.65601375 4.5422561,4.65607216 C4.37036585,4.65414433 4.08737805,4.54694502 3.83817073,4.40866667 C3.81957317,4.40732302 3.80134146,4.40609622 3.78512195,4.40609622 C3.72329268,4.40597938 3.68018293,4.41631959 3.65591463,4.42917182 C3.63164634,4.44249141 3.62469512,4.45341581 3.6202439,4.47123368 C3.61963415,4.47438832 3.61908537,4.47812715 3.61908537,4.48245017 C3.60939024,4.53479381 3.73152439,4.66723024 4.06628049,4.76 Z" id="Path"></path>
                                        <path d="M3.86792683,4.2903677 C4.10719512,4.4309244 4.41426829,4.54145361 4.5422561,4.5392921 C4.55652439,4.53940893 4.56792683,4.53800687 4.575,4.5362543 C4.57695122,4.53578694 4.57804878,4.53537801 4.57926829,4.53502749 C4.57908537,4.53187285 4.57896341,4.52877663 4.57878049,4.52568041 C4.5722561,4.50494158 4.54597561,4.46317182 4.50378049,4.41380756 C4.44853659,4.39043986 4.38963415,4.36117182 4.32719512,4.32728866 C4.17109756,4.24135395 4.00006098,4.12545017 3.84963415,4.00142612 C3.80414634,3.96351203 3.7629878,3.92694158 3.72518293,3.89124742 C3.6727439,3.87500687 3.62914634,3.86729553 3.59664634,3.86758763 C3.53890244,3.86928179 3.52310976,3.88336082 3.51176829,3.90351546 C3.50762195,3.91163574 3.50530488,3.92057388 3.50518293,3.93243299 C3.4997561,3.99330584 3.59945122,4.13765979 3.86792683,4.2903677 Z" id="Path"></path>
                                        <path d="M3.92920732,3.91280412 C4.07329268,4.0317457 4.2395122,4.14431959 4.38780488,4.22598969 C4.465,4.26910309 4.53871951,4.302811 4.59993902,4.32512715 C4.6175,4.27599656 4.64481707,4.23042955 4.68079268,4.18842612 C4.67426829,4.1777354 4.66713415,4.166811 4.65969512,4.15553608 C4.60457317,4.12328866 4.54591463,4.08373883 4.48347561,4.03898969 C4.31963415,3.91882131 4.14036585,3.75886942 3.98682927,3.59278351 C3.91737805,3.51695533 3.85896341,3.4461512 3.80939024,3.37943643 C3.73780488,3.34578694 3.68030488,3.33024742 3.64152439,3.33124055 C3.59896341,3.33235052 3.58243902,3.34280756 3.5672561,3.36255326 C3.55804878,3.37587285 3.55237805,3.3921134 3.55219512,3.41606529 C3.54865854,3.50480412 3.6552439,3.68946735 3.92920732,3.91280412 Z" id="Path"></path>
                                        <path d="M4.07829268,3.51543643 C4.22609756,3.67544674 4.40109756,3.83160137 4.55762195,3.94610309 C4.64213415,4.00954639 4.72396341,4.05867698 4.78914634,4.09004811 C4.82365854,4.064811 4.86158537,4.04120962 4.90280488,4.01936082 C4.89292683,3.98968385 4.87914634,3.95574227 4.86176829,3.91841237 C4.81091463,3.87594158 4.7577439,3.82634364 4.70268293,3.76991065 C4.53926829,3.602189 4.36323171,3.38095533 4.21908537,3.15849485 C4.17420732,3.08891753 4.13573171,3.02366323 4.10146341,2.9613299 C3.97536585,2.86371134 3.8777439,2.82316838 3.82237805,2.82568041 C3.79054878,2.8262646 3.77439024,2.8341512 3.75823171,2.85085911 C3.7429878,2.86739175 3.73262195,2.89110997 3.73237805,2.93065979 C3.73012195,3.03902749 3.82896341,3.24717526 4.07829268,3.51543643 Z" id="Path"></path>
                                        <path d="M4.04317073,2.42550859 C4.04219512,2.55893814 4.12304878,2.78963574 4.3227439,3.09697938 C4.53146341,3.42015464 4.81768293,3.74706873 5.00731707,3.88178351 C5.04268293,3.90778007 5.07493902,3.925189 5.09920732,3.93523711 C5.11634146,3.92927835 5.13378049,3.92361168 5.15152439,3.91806186 C5.15280488,3.90964948 5.15378049,3.89977663 5.15371951,3.88785911 C5.1545122,3.83756014 5.14036585,3.76605498 5.11506098,3.68158076 C5.07646341,3.63157388 5.03713415,3.57572509 4.99719512,3.51403436 C4.8525,3.28929553 4.70365854,2.99573883 4.5922561,2.70965979 C4.57890244,2.67525086 4.56670732,2.64206873 4.555,2.60935395 C4.37018293,2.3690756 4.21664634,2.27215808 4.14341463,2.27788316 C4.12134146,2.27817526 4.10634146,2.28349141 4.09054878,2.29517526 C4.06426829,2.3147457 4.04353659,2.35283505 4.04317073,2.42550859 Z" id="Path"></path>
                                        <path d="M4.53987805,1.97871821 C4.53963415,2.13498969 4.58896341,2.36656357 4.70652439,2.66876632 C4.86823171,3.0861134 5.11932927,3.52846392 5.29743902,3.71143299 C5.35481707,3.77359107 5.40817073,3.79871134 5.41560976,3.79538144 C5.41628049,3.79538144 5.41670732,3.79532302 5.41689024,3.79532302 C5.41768293,3.79462199 5.42853659,3.7867354 5.43713415,3.75653265 C5.44621951,3.72621306 5.45164634,3.6795945 5.45152439,3.6225189 C5.45164634,3.57905498 5.44841463,3.52928179 5.44280488,3.47547766 C5.41365854,3.41951203 5.38469512,3.35741237 5.35615854,3.2901134 C5.24109756,3.01910653 5.13390244,2.66753952 5.06719512,2.33279725 C5.05237805,2.25848797 5.0404878,2.18838488 5.03067073,2.12172852 C4.98006098,2.02545361 4.93054878,1.94769759 4.88359756,1.88846048 C4.79445122,1.77425086 4.71579268,1.73236426 4.67012195,1.73236426 C4.66914634,1.73236426 4.66817073,1.73236426 4.6672561,1.73242268 C4.65378049,1.73242268 4.64207317,1.73510997 4.62939024,1.74077663 C4.58426829,1.75935395 4.54,1.82834708 4.53987805,1.97871821 Z" id="Path"></path>
                                        <path d="M5.70359756,3.64115464 C5.72365854,3.65780412 5.73658537,3.66037457 5.73792683,3.65996564 C5.73792683,3.65996564 5.73908537,3.6598488 5.73865854,3.65996564 C5.73865854,3.65996564 5.74865854,3.65657732 5.7620122,3.63326804 C5.77512195,3.61095189 5.78865854,3.57368041 5.79908537,3.52624399 C5.805,3.50007216 5.81,3.47057045 5.81426829,3.43861512 C5.78353659,3.36091753 5.75573171,3.27124399 5.73121951,3.17064605 C5.65823171,2.87002062 5.61353659,2.48357732 5.61341463,2.12464948 C5.61347561,1.99782131 5.61932927,1.88343643 5.62987805,1.77985911 C5.59164634,1.66395533 5.55097561,1.57001718 5.50969512,1.49804467 C5.42835366,1.35462543 5.34817073,1.30590378 5.29896341,1.30806529 C5.29152439,1.30806529 5.28420732,1.30894158 5.27634146,1.31075258 C5.23987805,1.31928179 5.20359756,1.34773196 5.17219512,1.41958763 C5.14152439,1.49050859 5.12170732,1.60051203 5.12182927,1.74749485 C5.12182927,1.89687285 5.14176829,2.08457388 5.18689024,2.3107732 C5.24378049,2.59679381 5.33195122,2.89776976 5.4275,3.14406529 C5.52164634,3.38971821 5.63085366,3.58384536 5.70359756,3.64115464 Z" id="Path"></path>
                                        <path d="M5.84713415,1.36519931 C5.77981707,1.52322337 5.7352439,1.77518557 5.73554878,2.12464948 C5.73439024,2.64791065 5.8370122,3.24559794 5.97085366,3.49201031 C6.01420732,3.57642612 6.06067073,3.60475945 6.07085366,3.60037801 C6.08103659,3.60470103 6.12743902,3.57642612 6.17085366,3.49201031 C6.21463415,3.41069072 6.25676829,3.28871134 6.29176829,3.14418213 C6.36213415,2.85483162 6.40628049,2.47417182 6.40615854,2.12464948 C6.40640244,1.77518557 6.36189024,1.52322337 6.2945122,1.36519931 C6.22554878,1.20501375 6.14463415,1.15097595 6.07085366,1.15150172 C5.99707317,1.15097595 5.91609756,1.20495533 5.84713415,1.36519931 Z" id="Path"></path>
                                        <path d="M6.07079268,5.77141237 C6.82853659,5.77141237 7.4427439,5.18301375 7.4427439,4.45697938 C7.4427439,3.73106186 4.69884146,3.73106186 4.69884146,4.45697938 C4.69884146,5.18301375 5.31310976,5.77141237 6.07079268,5.77141237 Z" id="Path"></path>
                                    </g>
                                </g>
                            </g>
                        </g>
                    </g>
                </g>
            </g>
        </g>
    </g>
</svg>