<?xml version="1.0" encoding="UTF-8"?>
<svg width="54px" height="73px" viewBox="0 0 54 73" version="1.1" xmlns="http://www.w3.org/2000/svg" xmlns:xlink="http://www.w3.org/1999/xlink">
    <!-- Generator: Sketch 52.6 (67491) - http://www.bohemiancoding.com/sketch -->
    <title>Group</title>
    <desc>Created with Sketch.</desc>
    <g id="Page-1" stroke="none" stroke-width="1" fill="none" fill-rule="evenodd">
        <g id="HOME_CD" transform="translate(-384.000000, -300.000000)" fill="#FFFFFF" fill-rule="nonzero">
            <g id="First_Part">
                <g id="Triboo" transform="translate(336.000000, 278.000000)">
                    <g id="COMMERCIAL">
                        <g id="LOGO" transform="translate(48.425000, 22.350000)">
                            <g id="Group">
                                <path d="M51.7887573,16.4348676 C51.1845173,16.4348676 50.690067,16.9166719 50.690067,17.5297953 L50.690067,33.4938113 L44.4385112,27.263665 L44.4385112,12.0442043 C44.4385112,11.4420336 43.9440609,10.9492766 43.3398209,10.9492766 C42.7355809,10.9492766 42.2411306,11.4420336 42.2411306,12.0442043 L42.2411306,25.0738096 L35.9895749,18.8436633 L35.9895749,6.56956598 C35.9895749,5.96739529 35.4951246,5.47463832 34.8908846,5.47463832 C34.2866445,5.47463832 33.7921942,5.96739529 33.7921942,6.56956598 L33.7921942,16.653808 L27.5406385,10.4236617 L27.5406385,1.09492766 C27.5406385,0.492756969 27.0463015,0 26.4419482,0 C25.8377082,0 25.3432579,0.492756969 25.3432579,1.09492766 L25.3432579,10.4346143 L19.0917021,16.653808 L19.0917021,6.56956598 C19.0917021,5.96739529 18.6082422,5.47463832 17.9930118,5.47463832 C17.3887718,5.47463832 16.8943215,5.96739529 16.8943215,6.56956598 L16.8943215,18.8436633 L10.6427658,25.0738096 L10.6427658,12.0442043 C10.6427658,11.4420336 10.1484288,10.9492766 9.54407549,10.9492766 C8.93983548,10.9492766 8.44538519,11.4420336 8.44538519,12.0442043 L8.44538519,27.263665 L2.20481974,33.4938113 L2.20481974,17.5297953 C2.20481974,16.9166719 1.71036945,16.4348676 1.10612944,16.4348676 C0.490899125,16.4348676 0.00743913542,16.9166719 0.00743913542,17.5297953 L0.00743913542,54.757223 C0.00743913542,55.3593936 0.490899125,55.8521506 1.10612944,55.8521506 C1.71036945,55.8521506 2.20481974,55.3593936 2.20481974,54.757223 L2.20481974,38.7822543 L8.44538519,45.0124006 L8.44538519,60.2209086 C8.44538519,60.8230793 8.93983548,61.3158363 9.54407549,61.3158363 C10.1484288,61.3158363 10.6427658,60.8230793 10.6427658,60.2209086 L10.6427658,47.202143 L16.8943215,53.4322893 L16.8943215,65.695434 C16.8943215,66.2976047 17.3887718,66.7903617 17.9930118,66.7903617 C18.6082422,66.7903617 19.0917021,66.2976047 19.0917021,65.695434 L19.0917021,55.6221447 L25.3432579,61.852291 L25.3432579,71.1700723 C25.3432579,71.772243 25.8377082,72.265 26.4419482,72.265 C27.0463015,72.265 27.5406385,71.772243 27.5406385,71.1700723 L27.5406385,61.852291 L33.7921943,55.6221447 L33.7921943,65.695434 C33.7921943,66.2976047 34.2866445,66.7903617 34.8908846,66.7903617 C35.4951246,66.7903617 35.9895749,66.2976047 35.9895749,65.695434 L35.9895749,53.4322893 L42.2411306,47.202143 L42.2411306,60.2207957 C42.2411306,60.8229664 42.7355809,61.3157234 43.3398209,61.3157234 C43.9440609,61.3157234 44.4385112,60.8229664 44.4385112,60.2207957 L44.4385112,45.0122877 L50.690067,38.7821414 L50.690067,54.75711 C50.690067,55.3592807 51.1845173,55.8520377 51.7887573,55.8520377 C52.3929973,55.8520377 52.8874476,55.3592807 52.8874476,54.75711 L52.8874476,17.5297953 C52.8874476,16.916559 52.3929973,16.4348676 51.7887573,16.4348676 Z M26.4419482,59.848518 C24.5405126,57.93677 2.9801459,36.4668385 2.65542212,36.1434527 C21.1030407,17.7646565 21.870549,16.9897273 26.4419482,12.4273217 C26.6193793,12.6042581 34.6186196,20.579717 50.2285876,36.1434527 C41.2883734,45.0530497 35.3802363,50.9409535 26.4419482,59.848518 Z" id="Shape"></path>
                                <path d="M35.9864024,41.7669117 L30.6685691,41.7669117 L34.7978635,36.6865693 C35.062084,36.3707487 35.062084,35.9056556 34.7978635,35.5810277 L30.6598449,30.5006853 L35.9865157,30.5006853 C36.3474961,30.5006853 36.6645154,30.2901006 36.8053499,29.9566654 C36.9374601,29.6320374 36.8581486,29.2546786 36.6117166,29.0002832 L27.0677156,19.4889672 C26.7331346,19.1642263 26.1521215,19.1642263 25.8175404,19.4889672 L16.2735394,29.0002832 C16.0269941,29.2546786 15.9477959,29.6320374 16.0886304,29.9566654 C16.2207407,30.2901006 16.5464841,30.5006853 16.898627,30.5006853 L22.2252979,30.5006853 L18.0871659,35.5810277 C17.8318963,35.9056556 17.8318963,36.3707487 18.0871659,36.6865693 L22.2164603,41.7669117 L16.898627,41.7669117 C16.5463708,41.7669117 16.2206274,41.9863037 16.0886304,42.3109317 C15.9477959,42.6355596 16.0269941,43.0129184 16.2735394,43.2673138 L25.8175404,52.7786298 C25.9936119,52.945291 26.2224821,53.0331381 26.442628,53.0331381 C26.6714982,53.0331381 26.8916442,52.9454039 27.0677156,52.7786298 L36.6117166,43.2673138 C36.8582619,43.0129184 36.9374601,42.6355596 36.8053499,42.3109317 C36.6644021,41.9863037 36.3473828,41.7669117 35.9864024,41.7669117 Z M22.0401623,36.6866822 C21.7760551,36.3708616 21.7760551,35.9057686 22.0401623,35.5811406 L25.764515,31.0097019 C26.0902585,30.5973397 26.7946576,30.5973397 27.1292386,31.0097019 L30.8534781,35.5811406 C31.1175853,35.9057686 31.1175853,36.3708616 30.8534781,36.6866822 L27.1292386,41.2668153 C26.9620048,41.4687057 26.7066219,41.5914433 26.4425147,41.5914433 C26.1784076,41.5914433 25.9318622,41.4685928 25.7646283,41.2668153 L22.0401623,36.6866822 Z" id="Shape"></path>
                            </g>
                        </g>
                    </g>
                </g>
            </g>
        </g>
    </g>
</svg>