<?xml version="1.0" encoding="UTF-8"?>
<svg width="164px" height="291px" viewBox="0 0 164 291" version="1.1" xmlns="http://www.w3.org/2000/svg" xmlns:xlink="http://www.w3.org/1999/xlink">
    <!-- Generator: Sketch 52.6 (67491) - http://www.bohemiancoding.com/sketch -->
    <title>LogoTribeHuman</title>
    <desc>Created with Sketch.</desc>
    <g id="Page-1" stroke="none" stroke-width="1" fill="none" fill-rule="evenodd">
        <g id="SIGNIN" transform="translate(-808.000000, -276.000000)" fill="#FFFFFF">
            <g id="LogoTribeHuman" transform="translate(808.000000, 276.000000)">
                <g id="Group">
                    <path d="M141.684,191.014 C141.957,195.248 145.476,198.501 149.661,198.501 C149.834,198.501 150.008,198.495 150.182,198.484 C154.592,198.198 157.936,194.393 157.652,189.985 C157.568,188.689 157.473,187.419 157.371,186.159 C153.264,185.252 145.941,184.045 141.045,183.269 C141.296,185.761 141.512,188.339 141.684,191.014 Z" id="Path"></path>
                    <path d="M18.665,130.939 C16.602,130.853 14.503,130.656 12.366,130.324 L12.366,48.75 C15.718,46.95 18.116,41.682 18.116,31 C18.116,17.33 9.366,0 9.366,0 C9.366,0 0.616,17.33 0.616,31 C0.616,41.682 3.014,46.95 6.366,48.75 L6.366,129.836 C3.341,130.469 0.828,132.832 0.166,136.052 C-0.725,140.371 2.05,144.596 6.366,145.496 L6.366,291 L12.366,291 L12.366,146.454 C13.395,146.578 14.418,146.68 15.435,146.759 C15.381,146.177 15.345,145.578 15.339,144.948 C15.301,140.965 16.418,134.238 18.665,130.939 Z" id="Path"></path>
                    <path d="M64.972,275.52 L64.825,277.581 C64.337,284.394 69.464,290.309 76.272,290.796 C83.083,291.284 89.001,286.161 89.489,279.349 L89.522,278.882 C83.236,279.492 69.759,278.706 64.972,275.52 Z" id="Path"></path>
                    <path d="M63.128,268.952 C63.147,270.195 63.205,271.075 63.311,271.501 C64.826,277.581 91.873,278.001 92.811,276.001 C93.302,274.953 95.735,246.339 97.408,221.047 C87.396,210.1 80.136,198.444 75.041,188.407 C72.828,184.046 70.925,179.823 69.29,175.839 C69.023,179.107 68.67,183.478 68.267,188.552 L65.864,188.773 C65.039,188.849 64.431,189.58 64.508,190.404 C64.584,191.228 65.315,191.837 66.139,191.76 L68.028,191.586 C67.931,192.815 67.832,194.077 67.731,195.368 L65.35,195.587 C64.526,195.663 63.918,196.394 63.995,197.218 C64.07,198.042 64.802,198.65 65.626,198.575 L67.495,198.403 C67.399,199.644 67.301,200.904 67.202,202.184 L64.837,202.402 C64.012,202.477 63.404,203.209 63.48,204.033 C63.555,204.857 64.287,205.465 65.111,205.388 L66.969,205.217 C66.874,206.466 66.778,207.725 66.682,208.997 L64.322,209.214 C63.497,209.29 62.889,210.021 62.966,210.846 C63.042,211.67 63.773,212.278 64.597,212.202 L66.455,212.031 C66.361,213.286 66.267,214.546 66.173,215.811 L63.808,216.028 C62.984,216.104 62.376,216.835 62.453,217.659 C62.528,218.483 63.26,219.091 64.084,219.014 L65.951,218.843 C65.859,220.103 65.767,221.363 65.676,222.623 L63.295,222.842 C62.47,222.917 61.862,223.649 61.939,224.473 C62.014,225.297 62.746,225.905 63.57,225.828 L65.46,225.654 C65.37,226.92 65.281,228.179 65.194,229.433 L62.781,229.655 C61.957,229.731 61.348,230.462 61.425,231.286 C61.501,232.111 62.232,232.719 63.056,232.642 L64.984,232.465 C64.897,233.736 64.811,234.995 64.728,236.241 L62.267,236.468 C61.443,236.544 60.835,237.275 60.911,238.099 C60.986,238.924 61.718,239.532 62.542,239.455 L64.527,239.272 C64.443,240.549 64.361,241.811 64.283,243.048 L61.753,243.28 C60.929,243.356 60.32,244.087 60.397,244.912 C60.473,245.736 61.204,246.344 62.028,246.267 L64.095,246.078 C64.016,247.367 63.941,248.627 63.87,249.852 L61.239,250.094 C60.415,250.17 59.807,250.901 59.883,251.724 C59.959,252.55 60.69,253.158 61.514,253.081 L63.7,252.88 C63.629,254.188 63.562,255.447 63.503,256.653 L60.726,256.908 C59.902,256.983 59.294,257.715 59.371,258.539 C59.447,259.363 60.178,259.971 61.002,259.896 L63.362,259.679 C63.303,261.031 63.255,262.285 63.217,263.446 L60.212,263.722 C59.388,263.798 58.78,264.529 58.856,265.353 C58.932,266.177 59.663,266.785 60.487,266.71 L63.141,266.466 C63.118,267.415 63.117,268.24 63.128,268.952 Z" id="Path"></path>
                    <path d="M109.6,278.881 L109.633,279.348 C110.121,286.161 116.039,291.284 122.85,290.795 C129.659,290.309 134.786,284.393 134.297,277.58 L134.15,275.519 C129.364,278.706 115.887,279.492 109.6,278.881 Z" id="Path"></path>
                    <path d="M135.258,249.855 C135.24,249.542 135.222,249.23 135.203,248.912 C121.966,242.833 111.023,234.712 102.04,225.859 C103.687,249.835 105.852,275.018 106.312,276.001 C107.25,278.001 134.297,277.581 135.812,271.501 C135.918,271.075 135.976,270.195 135.995,268.952 C136.006,268.24 136.004,267.416 135.989,266.469 L138.643,266.713 C139.467,266.788 140.198,266.181 140.274,265.356 C140.349,264.532 139.742,263.801 138.918,263.725 L135.913,263.449 C135.875,262.289 135.828,261.034 135.768,259.682 L138.128,259.899 C138.952,259.974 139.683,259.367 139.759,258.542 C139.835,257.718 139.228,256.986 138.404,256.911 L135.627,256.656 C135.567,255.45 135.501,254.19 135.43,252.883 L137.616,253.084 C138.44,253.16 139.171,252.553 139.247,251.727 C139.292,251.23 139.086,250.769 138.736,250.463 C138.447,250.342 138.161,250.218 137.874,250.095 L135.258,249.855 Z" id="Path"></path>
                    <path d="M26.296,163.08 C26.436,163.897 27.211,164.446 28.027,164.307 C28.843,164.168 29.392,163.393 29.253,162.577 L28.046,155.505 C26.965,155.619 25.958,155.695 25.041,155.729 L26.296,163.08 Z" id="Path"></path>
                    <path d="M32.752,161.979 C32.892,162.795 33.667,163.344 34.483,163.206 C35.299,163.067 35.849,162.292 35.71,161.476 L34.53,154.564 C33.518,154.742 32.526,154.905 31.569,155.049 L32.752,161.979 Z" id="Path"></path>
                    <path d="M39.21,160.877 C39.35,161.693 40.125,162.242 40.941,162.104 C41.756,161.963 42.306,161.19 42.167,160.373 L40.962,153.311 C39.978,153.519 38.995,153.72 38.021,153.913 L39.21,160.877 Z" id="Path"></path>
                    <path d="M45.666,159.776 C45.806,160.592 46.581,161.141 47.397,161.003 C48.213,160.862 48.762,160.088 48.623,159.271 L47.362,151.88 C46.401,152.105 45.422,152.331 44.434,152.554 L45.666,159.776 Z" id="Path"></path>
                    <path d="M52.123,158.673 C52.262,159.49 53.037,160.039 53.853,159.899 C54.669,159.76 55.219,158.985 55.08,158.169 L53.741,150.322 C52.81,150.557 51.835,150.801 50.821,151.05 L52.123,158.673 Z" id="Path"></path>
                    <path d="M58.579,157.571 C58.719,158.389 59.494,158.938 60.31,158.798 C61.126,158.659 61.675,157.884 61.536,157.068 L60.102,148.663 C59.282,148.884 58.298,149.146 57.19,149.435 L58.579,157.571 Z" id="Path"></path>
                    <path d="M73.581,119.883 C78.228,128.045 84.431,137.85 90.234,144.121 C94.049,148.375 97.844,150.655 99.56,150.498 C100.838,150.565 103.318,149.425 106.06,146.924 C108.814,144.471 111.828,140.889 114.751,136.864 C120.617,128.804 126.168,118.974 129.64,112.435 C130.219,111.345 130.74,110.348 131.196,109.466 C129.83,108.9 128.394,108.392 126.899,107.937 C122.837,116.48 117.144,127.195 111.218,134.295 C107.452,138.761 103.609,141.947 99.56,141.999 C95.514,141.947 91.668,138.761 87.904,134.295 C84.148,129.803 80.511,123.884 77.307,117.974 C75.316,114.301 73.495,110.632 71.931,107.319 C70.47,107.816 69.125,108.484 67.826,109.273 C67.859,109.337 67.888,109.395 67.922,109.461 C69.294,112.116 71.249,115.798 73.581,119.883 Z" id="Path"></path>
                    <path d="M124.946,107.382 C120.148,106.104 114.852,105.319 109.46,104.906 C108.799,108.403 104.626,113.75 99.562,113.75 C94.471,113.75 90.279,108.346 89.652,104.85 C83.749,105.225 78.437,105.899 74.409,106.666 C74.232,106.699 74.065,106.745 73.891,106.783 C74.148,107.326 74.411,107.876 74.682,108.435 C78.653,116.659 84.016,126.534 89.438,133.014 C93.042,137.361 96.699,140.049 99.561,139.997 C103.891,140.139 109.852,133.819 115.04,125.587 C118.758,119.779 122.209,113.117 124.946,107.382 Z" id="Path"></path>
                    <path d="M140.408,249 C140.408,249 131.408,193.666 130.741,153 L137.908,181 C137.908,181 150.407,181 160.741,185 C170.56,188.801 152.013,125.793 136.414,112.431 C132.172,120.648 122.757,137.896 113.296,148.19 C108.973,152.749 104.755,156.344 99.56,156.501 C94.367,156.345 90.149,152.749 85.826,148.19 C81.549,143.553 77.354,137.563 73.596,131.597 C69.116,124.477 65.282,117.397 62.913,112.835 C55.278,119.006 46.187,127.786 21.491,131 C18.535,131.385 13.408,152.666 22.408,153.666 C31.408,154.666 62.241,146 62.241,146 C62.241,146 75.075,222.333 140.408,249 Z" id="Path"></path>
                    <path d="M119.036,96.56 C122.261,98.855 124.739,99.746 126.119,99.728 C126.861,99.722 127.224,99.522 127.444,99.275 C127.594,99.09 127.66,98.928 127.667,98.646 C127.719,98.043 127.114,96.839 125.622,95.335 C125.174,95.18 124.717,95.015 124.239,94.826 C122.209,94.015 120.177,93.013 118.385,91.953 C117.695,92.782 116.949,93.563 116.157,94.295 C117.083,95.089 118.054,95.864 119.036,96.56 Z" id="Path"></path>
                    <path d="M129.902,89.543 C129.399,89.522 128.88,89.492 128.333,89.444 C125.827,89.212 123.249,88.747 121.007,88.122 C120.581,88.892 120.112,89.635 119.608,90.351 C121.258,91.314 123.133,92.239 124.975,92.968 C127.722,94.057 129.875,94.501 131.351,94.498 C132.937,94.488 133.585,94.025 133.786,93.609 C133.855,93.47 133.884,93.348 133.884,93.201 C134.002,92.596 132.898,91.08 129.902,89.543 Z" id="Path"></path>
                    <path d="M133.009,83.397 C129.563,84.425 125.752,85.047 122.886,85.05 C122.733,85.05 122.589,85.043 122.442,85.039 C122.278,85.465 122.103,85.884 121.918,86.297 C123.944,86.835 126.285,87.256 128.51,87.452 C129.444,87.533 130.3,87.571 131.082,87.571 C133.221,87.573 134.787,87.276 135.762,86.85 C136.754,86.411 137.065,85.944 137.137,85.558 C137.148,85.497 137.154,85.44 137.154,85.383 C137.16,85.019 136.897,84.452 135.671,83.818 C135.188,83.572 134.567,83.34 133.821,83.133 C133.555,83.222 133.288,83.31 133.009,83.397 Z" id="Path"></path>
                    <path d="M136.173,75.467 C132.084,77.833 127.448,79.668 124.63,79.703 C124.377,79.701 124.116,79.682 123.858,79.64 C123.848,79.646 123.837,79.651 123.826,79.657 C123.666,80.814 123.425,81.945 123.109,83.045 C125.679,83.018 129.265,82.434 132.436,81.482 C137.927,79.891 139.927,77.628 139.768,76.727 C139.768,76.661 139.762,76.586 139.749,76.522 C139.681,76.232 139.566,76.045 139.166,75.815 C138.768,75.595 138.061,75.419 137.047,75.423 C136.78,75.422 136.479,75.443 136.173,75.467 Z" id="Path"></path>
                    <path d="M135.99,68.496 C133.521,70.617 130.716,72.602 128.159,74.072 C127.133,74.652 126.165,75.154 125.259,75.554 C124.579,76.384 124.15,77.089 124.034,77.45 C124.031,77.509 124.029,77.567 124.026,77.626 C124.126,77.662 124.333,77.703 124.631,77.7 C126.728,77.738 131.761,75.846 135.688,73.442 C140.091,70.825 141.726,68.355 141.637,67.311 C141.637,67.11 141.598,66.954 141.529,66.811 C141.344,66.471 141.084,66.231 140.138,66.204 C139.605,66.198 138.891,66.328 138.033,66.605 C137.412,67.219 136.736,67.846 135.99,68.496 Z" id="Path"></path>
                    <path d="M136.645,57.85 C135.832,58.993 134.874,60.204 133.735,61.501 C131.217,64.344 128.277,67.082 125.59,69.139 C124.567,69.904 123.605,70.58 122.702,71.133 C122.58,71.324 122.464,71.512 122.356,71.694 C122.947,72.414 123.395,73.194 123.684,74.036 C124.687,73.654 125.896,73.078 127.161,72.34 C129.595,70.942 132.319,69.015 134.684,66.982 C139.175,63.156 140.921,59.995 140.863,58.477 C140.861,58.067 140.766,57.787 140.614,57.557 C140.367,57.223 140.096,57.043 139.398,57.025 C138.763,57.007 137.819,57.274 136.645,57.85 Z" id="Path"></path>
                    <path d="M131.858,50.691 C131.296,51.758 130.664,52.877 129.928,54.069 C126.761,59.155 122.701,64.187 119.387,67.077 C119.102,67.715 118.876,68.294 118.715,68.801 C119.392,69.175 120.014,69.579 120.58,70.011 C121.649,69.474 122.99,68.634 124.375,67.549 C126.942,65.589 129.812,62.916 132.238,60.177 C136.327,55.585 137.945,52.022 137.91,50.169 C137.906,49.492 137.734,49.084 137.484,48.798 C137.221,48.517 136.954,48.38 136.434,48.37 C135.525,48.327 133.925,49.021 131.858,50.691 Z" id="Path"></path>
                    <path d="M123.807,46.382 C121.469,52.625 118.177,59.041 115.237,63.011 C114.82,64.461 114.588,65.688 114.6,66.55 C114.599,66.755 114.614,66.922 114.636,67.067 C114.926,67.162 115.212,67.26 115.493,67.361 C115.891,67.19 116.42,66.892 116.999,66.447 C118.027,65.681 119.249,64.545 120.534,63.169 C123.106,60.416 125.937,56.704 128.228,53.014 C131.502,47.753 132.829,43.804 132.813,41.52 C132.805,40.278 132.465,39.626 132.035,39.285 C131.781,39.089 131.532,38.998 131.17,38.995 C129.971,38.894 127.45,40.555 124.418,44.672 C124.225,45.229 124.026,45.795 123.807,46.382 Z" id="Path"></path>
                    <path d="M116.618,36.32 C116.458,37.462 116.263,38.661 116.02,39.932 C114.642,47.082 112.277,54.639 109.861,59.472 C109.768,60.4 109.715,61.257 109.716,62.006 C109.714,62.985 109.803,63.783 109.952,64.3 C110.099,64.838 110.275,64.969 110.281,64.964 C110.281,64.964 110.281,64.964 110.282,64.964 C110.284,64.964 110.287,64.967 110.306,64.967 C110.428,65.025 111.301,64.596 112.243,63.53 C113.205,62.494 114.324,60.95 115.466,59.098 C117.754,55.393 120.156,50.451 121.935,45.682 C123.863,40.509 124.672,36.545 124.668,33.87 C124.666,31.296 123.938,30.114 123.199,29.796 C122.994,29.699 122.8,29.653 122.578,29.653 C121.835,29.622 120.521,30.328 119.028,32.324 C118.26,33.34 117.448,34.671 116.618,36.32 Z" id="Path"></path>
                    <path d="M106.793,30.462 C106.966,32.236 107.062,34.195 107.063,36.368 C107.046,44.575 105.786,53.549 103.77,58.864 C103.971,60.405 104.266,61.583 104.623,62.192 C104.844,62.591 105.003,62.652 105.005,62.647 L105.02,62.649 C105.041,62.656 105.254,62.612 105.581,62.327 C105.904,62.052 106.307,61.578 106.731,60.947 C107.581,59.685 108.518,57.804 109.428,55.565 C111.25,51.082 112.986,45.147 114.055,39.554 C114.795,35.682 115.12,32.47 115.12,29.912 C115.124,27.395 114.797,25.513 114.295,24.299 C113.78,23.069 113.184,22.582 112.589,22.436 C112.461,22.405 112.339,22.39 112.217,22.39 C111.41,22.353 110.095,23.187 108.761,25.642 C108.085,26.874 107.419,28.48 106.793,30.462 Z" id="Path"></path>
                    <path d="M73.481,95.343 C71.992,96.845 71.401,98.042 71.455,98.643 C71.459,98.926 71.526,99.088 71.677,99.271 C71.897,99.522 72.259,99.722 73.003,99.73 C74.382,99.747 76.863,98.855 80.085,96.56 C81.068,95.863 82.039,95.088 82.964,94.294 C82.172,93.564 81.427,92.781 80.736,91.953 C78.943,93.016 76.907,94.024 74.883,94.828 C74.399,95.02 73.935,95.187 73.481,95.343 Z" id="Path"></path>
                    <path d="M74.147,92.968 C75.981,92.262 77.861,91.322 79.513,90.349 C79.009,89.632 78.54,88.889 78.113,88.119 C75.871,88.745 73.286,89.223 70.787,89.446 C70.241,89.493 69.721,89.524 69.218,89.545 C66.223,91.081 65.118,92.597 65.236,93.202 C65.238,93.345 65.267,93.468 65.338,93.608 C65.537,94.024 66.183,94.489 67.772,94.499 C69.247,94.501 71.398,94.057 74.147,92.968 Z" id="Path"></path>
                    <path d="M77.205,86.295 C77.02,85.883 76.845,85.465 76.682,85.04 C76.534,85.044 76.389,85.051 76.235,85.051 C73.368,85.049 69.557,84.424 66.113,83.396 C65.835,83.309 65.568,83.221 65.303,83.133 C64.554,83.339 63.932,83.571 63.447,83.817 C62.221,84.452 61.96,85.02 61.966,85.385 C61.966,85.435 61.972,85.49 61.983,85.555 C62.055,85.945 62.367,86.409 63.358,86.849 C64.331,87.275 65.899,87.574 68.038,87.572 C68.82,87.572 69.679,87.534 70.613,87.454 C72.84,87.255 75.178,86.834 77.205,86.295 Z" id="Path"></path>
                    <path d="M66.687,81.48 C69.854,82.433 73.443,83.017 76.015,83.044 C75.7,81.946 75.458,80.817 75.299,79.663 C75.286,79.655 75.272,79.648 75.259,79.641 C75.003,79.682 74.744,79.7 74.493,79.701 C71.674,79.668 67.033,77.833 62.946,75.466 C62.641,75.443 62.342,75.422 62.076,75.422 C61.062,75.42 60.355,75.597 59.957,75.817 C59.559,76.045 59.445,76.232 59.372,76.537 C59.362,76.591 59.353,76.655 59.353,76.729 C59.194,77.625 61.197,79.892 66.687,81.48 Z" id="Path"></path>
                    <path d="M63.434,73.441 C67.358,75.847 72.394,77.739 74.493,77.702 C74.727,77.704 74.914,77.68 75.03,77.65 C75.062,77.642 75.08,77.635 75.1,77.629 C75.097,77.575 75.095,77.522 75.092,77.469 C74.985,77.114 74.554,76.399 73.862,75.554 C72.956,75.154 71.99,74.653 70.966,74.073 C68.406,72.602 65.601,70.618 63.134,68.495 C62.388,67.846 61.713,67.22 61.093,66.609 C60.233,66.331 59.518,66.199 58.985,66.204 C58.038,66.233 57.779,66.474 57.593,66.819 C57.525,66.958 57.487,67.111 57.485,67.314 C57.396,68.356 59.031,70.827 63.434,73.441 Z" id="Path"></path>
                    <path d="M64.439,66.978 C66.802,69.014 69.528,70.941 71.96,72.339 C73.226,73.077 74.435,73.654 75.439,74.036 C75.727,73.195 76.175,72.415 76.765,71.696 C76.658,71.513 76.541,71.326 76.419,71.133 C75.515,70.581 74.553,69.904 73.529,69.138 C70.842,67.081 67.902,64.343 65.384,61.5 C64.245,60.202 63.287,58.99 62.474,57.848 C61.3,57.272 60.357,57.006 59.721,57.023 C59.023,57.042 58.752,57.221 58.503,57.559 C58.352,57.787 58.259,58.065 58.256,58.475 C58.198,59.994 59.946,63.155 64.439,66.978 Z" id="Path"></path>
                    <path d="M66.884,60.176 C69.308,62.915 72.178,65.588 74.745,67.548 C76.131,68.634 77.473,69.475 78.542,70.012 C79.108,69.58 79.73,69.176 80.406,68.802 C80.244,68.294 80.018,67.713 79.733,67.074 C78.899,66.347 78.027,65.498 77.124,64.532 C74.444,61.661 71.557,57.874 69.193,54.066 C68.457,52.875 67.826,51.758 67.264,50.691 C65.196,49.02 63.595,48.326 62.687,48.369 C62.165,48.379 61.9,48.514 61.635,48.8 C61.385,49.083 61.215,49.489 61.211,50.166 C61.174,52.021 62.795,55.584 66.884,60.176 Z" id="Path"></path>
                    <path d="M66.308,41.519 C66.292,43.803 67.618,47.752 70.893,53.013 C74.316,58.545 79.01,64.141 82.12,66.447 C82.7,66.892 83.229,67.19 83.627,67.362 C83.908,67.26 84.194,67.163 84.485,67.068 C84.506,66.924 84.522,66.755 84.521,66.551 C84.534,65.69 84.302,64.466 83.887,63.02 C83.254,62.164 82.609,61.208 81.954,60.152 C79.581,56.305 77.14,51.28 75.313,46.383 C75.094,45.794 74.894,45.226 74.702,44.666 C71.671,40.553 69.153,38.894 67.952,38.992 C67.59,38.997 67.344,39.088 67.085,39.288 C66.654,39.623 66.314,40.275 66.308,41.519 Z" id="Path"></path>
                    <path d="M74.454,33.871 C74.45,36.546 75.259,40.51 77.187,45.683 C79.839,52.827 83.957,60.399 86.878,63.531 C87.819,64.595 88.694,65.025 88.816,64.968 C88.827,64.968 88.834,64.967 88.837,64.967 C88.85,64.955 89.028,64.82 89.169,64.303 C89.318,63.784 89.407,62.986 89.405,62.009 C89.407,61.265 89.354,60.413 89.262,59.492 C88.784,58.534 88.309,57.471 87.841,56.319 C85.954,51.68 84.196,45.662 83.102,39.932 C82.859,38.66 82.664,37.46 82.503,36.319 C81.673,34.671 80.861,33.34 80.091,32.326 C78.629,30.371 77.339,29.654 76.59,29.654 C76.574,29.654 76.558,29.654 76.543,29.655 C76.322,29.655 76.13,29.701 75.922,29.798 C75.182,30.116 74.456,31.297 74.454,33.871 Z" id="Path"></path>
                    <path d="M93.539,62.328 C93.868,62.613 94.08,62.657 94.102,62.65 C94.102,62.65 94.121,62.648 94.114,62.65 C94.114,62.65 94.278,62.592 94.497,62.193 C94.712,61.811 94.934,61.173 95.105,60.361 C95.202,59.913 95.284,59.408 95.354,58.861 C94.85,57.531 94.394,55.996 93.992,54.274 C92.795,49.128 92.062,42.513 92.06,36.369 C92.061,34.198 92.157,32.24 92.33,30.467 C91.703,28.483 91.036,26.875 90.359,25.643 C89.025,23.188 87.71,22.354 86.903,22.391 C86.781,22.391 86.661,22.406 86.532,22.437 C85.934,22.583 85.339,23.07 84.824,24.3 C84.321,25.514 83.996,27.397 83.998,29.913 C83.998,32.47 84.325,35.683 85.065,39.555 C85.998,44.451 87.444,49.603 89.011,53.819 C90.555,58.024 92.346,61.347 93.539,62.328 Z" id="Path"></path>
                    <path d="M95.893,23.369 C94.789,26.074 94.058,30.387 94.063,36.369 C94.044,45.326 95.727,55.557 97.922,59.775 C98.633,61.22 99.395,61.705 99.562,61.63 C99.729,61.704 100.49,61.22 101.202,59.775 C101.92,58.383 102.611,56.295 103.185,53.821 C104.339,48.868 105.063,42.352 105.061,36.369 C105.065,30.387 104.335,26.074 103.23,23.369 C102.099,20.627 100.772,19.702 99.562,19.711 C98.352,19.702 97.024,20.626 95.893,23.369 Z" id="Path"></path>
                    <path d="M99.561,98.793 C111.988,98.793 122.061,88.721 122.061,76.293 C122.061,63.867 77.061,63.867 77.061,76.293 C77.061,88.721 87.135,98.793 99.561,98.793 Z" id="Path"></path>
                </g>
            </g>
        </g>
    </g>
</svg>