<?xml version="1.0" encoding="UTF-8"?>
<svg width="86px" height="59px" viewBox="0 0 86 59" version="1.1" xmlns="http://www.w3.org/2000/svg" xmlns:xlink="http://www.w3.org/1999/xlink">
    <!-- Generator: Sketch 52.6 (67491) - http://www.bohemiancoding.com/sketch -->
    <title>LOGO</title>
    <desc>Created with Sketch.</desc>
    <g id="Page-1" stroke="none" stroke-width="1" fill="none" fill-rule="evenodd" opacity="0.20375279">
        <g id="HOME_CD" transform="translate(-673.000000, -306.000000)" fill="#404660">
            <g id="First_Part">
                <g id="Triboo" transform="translate(336.000000, 278.000000)">
                    <g id="INGÉNIEURIE" transform="translate(306.000000, 0.000000)">
                        <g id="LOGO" transform="translate(31.290000, 28.310000)">
                            <g id="Group">
                                <path d="M85.2757396,55.7772797 C78.3901929,46.5502041 49.5357514,7.88248943 44.1250617,0.63485175 C43.6440347,-0.00752788636 42.5641836,-0.005811 42.0866134,0.63485175 C0.801918,55.979344 29.381145,17.6696662 0.834491692,55.9469873 C0.216655169,56.7741303 0.810161138,57.9558764 1.85371588,57.9558764 C40.8119848,57.9558764 30.6103033,57.9558764 84.3828216,57.9558764 C84.3927931,57.9558764 84.4014351,57.957065 84.407551,57.9558764 C85.5633188,57.9557444 86.1044409,56.550803 85.2757396,55.7772797 Z M57.9335152,23.369993 L43.1183352,43.2432168 L28.2903916,23.36788 C48.5936405,-3.85771159 41.5857762,5.53946782 43.1059705,3.50099543 L57.9335152,23.369993 Z M26.7114317,25.4853291 L42.099111,46.1094926 C42.338162,46.4293617 42.7170805,46.6187475 43.1183352,46.6187475 C43.5207865,46.6187475 43.8985084,46.4293617 44.1375594,46.108304 L59.5124751,25.4857253 C59.6080689,25.6138315 62.3308307,29.2643281 62.1598521,29.0351898 L43.1183352,54.5803458 L24.0643206,29.0350577 L26.7114317,25.4853291 Z M16.553492,39.1026152 L28.7427006,55.4365438 L4.37132991,55.4365438 L16.553492,39.1026152 Z M18.1321859,36.9859585 L22.4849619,31.1497334 L40.5999234,55.4365438 L31.9010192,55.4365438 L18.1321859,36.9859585 Z M45.6350186,55.4364117 L63.7377483,31.1511862 L68.0954436,36.9953353 L54.3356512,55.4364117 L45.6350186,55.4364117 Z M57.493571,55.4364117 L69.6771955,39.106181 L81.863878,55.4364117 L57.493571,55.4364117 Z" id="Shape" fill-rule="nonzero"></path>
                                <path d="M37.6753377,23.6019048 L42.7987142,30.4648278 C42.868249,30.5592566 42.9884393,30.622121 43.1152773,30.622121 C43.2418493,30.622121 43.3557908,30.5592566 43.4318404,30.4648278 L48.5487021,23.6019048 C48.6501459,23.4634973 48.6501459,23.2746398 48.5487021,23.1300252 L43.4255915,16.2733093 C43.2797412,16.0719053 42.9379168,16.0719053 42.7921994,16.2733093 L37.6753377,23.1300252 C37.5741598,23.2746398 37.5741598,23.4634973 37.6753377,23.6019048 Z" id="Path"></path>
                            </g>
                        </g>
                    </g>
                </g>
            </g>
        </g>
    </g>
</svg>